<?xml version="1.0" encoding="utf-8"?>
<COLLADA xmlns="http://www.collada.org/2005/11/COLLADASchema" version="1.4.1">
  <asset><contributor><author></author><authoring_tool>FBX COLLADA exporter</authoring_tool><comments></comments></contributor><created>2017-05-18T10:57:37Z</created><keywords></keywords><modified>2017-05-18T10:57:37Z</modified><revision></revision><subject></subject><title></title><unit meter="0.010000" name="centimeter"></unit><up_axis>Y_UP</up_axis></asset>
  <library_materials>
    <material id="phong1" name="phong1">
      <instance_effect url="#phong1-fx"/>
    </material>
  </library_materials>
  <library_effects>
    <effect id="phong1-fx" name="phong1">
      <profile_COMMON>
        <technique sid="standard">
          <phong>
            <emission>
              <color sid="emission">0.000000  0.000000 0.000000 1.000000</color>
            </emission>
            <ambient>
              <color sid="ambient">0.000000  0.000000 0.000000 1.000000</color>
            </ambient>
            <diffuse>
              <color sid="diffuse">0.126713  0.054689 0.054689 1.000000</color>
            </diffuse>
            <specular>
              <color sid="specular">0.195117  0.195117 0.195117 1.000000</color>
            </specular>
            <shininess>
              <float sid="shininess">2.000000</float>
            </shininess>
            <reflective>
              <color sid="reflective">0.000000  0.000000 0.000000 1.000000</color>
            </reflective>
            <reflectivity>
              <float sid="reflectivity">0.000000</float>
            </reflectivity>
            <transparent opaque="RGB_ZERO">
              <color sid="transparent">0.000000  0.000000 0.000000 1.000000</color>
            </transparent>
            <transparency>
              <float sid="transparency">1.000000</float>
            </transparency>
          </phong>
        </technique>
      </profile_COMMON>
    </effect>
  </library_effects>
  <library_geometries>
    <geometry id="pPlane2-lib" name="pPlane2Mesh">
      <mesh>
        <source id="pPlane2-POSITION">
          <float_array id="pPlane2-POSITION-array" count="1203">
-0.591292 -0.073298 0.108504
-0.324727 -0.073298 0.142941
-0.081333 -0.073298 0.129830
0.082010 -0.073298 0.149077
0.295040 -0.073298 0.111557
0.491569 -0.073298 0.125122
-0.681530 -0.073298 -0.012696
-0.295216 -0.073298 0.045711
-0.079756 -0.073298 0.044740
0.085830 -0.073298 0.041100
0.295040 -0.073298 0.008622
0.500000 -0.073298 0.036138
-0.700100 -0.073298 -0.089617
-0.293639 -0.073298 -0.039819
-0.079756 -0.073298 -0.041808
0.085830 -0.073298 -0.039291
0.295040 -0.073298 -0.063110
0.500000 -0.073298 -0.032377
-0.616123 -0.073298 -0.187510
-0.291983 -0.073298 -0.108812
-0.079756 -0.073298 -0.114121
0.085830 -0.073298 -0.113072
0.295040 -0.073298 -0.127819
0.500000 -0.073298 -0.113071
-0.558042 -0.073298 -0.323871
-0.289458 -0.073298 -0.307936
-0.079756 -0.073298 -0.332721
0.085830 -0.073298 -0.343191
0.295040 -0.073298 -0.273727
0.500000 -0.073298 -0.279433
-0.387047 -0.073298 -0.458581
-0.236284 -0.073298 -0.445956
-0.058814 -0.073298 -0.461545
0.085830 -0.073298 -0.474877
0.310466 -0.073298 -0.410057
0.501296 -0.073298 -0.373268
0.545584 -0.073298 0.102142
0.542450 -0.073298 0.034308
0.542450 -0.073298 -0.031912
0.542450 -0.073298 -0.113071
0.542448 -0.073298 -0.253167
0.545740 -0.073298 -0.303415
0.576494 -0.073298 0.045225
0.580544 -0.073298 -0.015394
0.581748 -0.073298 -0.057557
0.579488 -0.073298 -0.136963
0.575415 -0.073298 -0.232719
0.573474 -0.073298 -0.279891
0.601101 -0.073298 0.018884
0.600819 -0.073298 -0.038610
0.600692 -0.073298 -0.060070
0.599412 -0.073298 -0.155659
0.595930 -0.073298 -0.203037
0.595195 -0.073298 -0.243886
0.622975 -0.073298 0.031981
0.621820 -0.073298 -0.034171
0.621162 -0.073298 -0.066999
0.618281 -0.073298 -0.148224
0.611639 -0.073298 -0.194209
0.609144 -0.073298 -0.233702
0.638383 -0.073298 0.041960
0.637049 -0.073298 -0.031960
0.635961 -0.073298 -0.065658
0.631210 -0.073298 -0.112141
0.629357 -0.073298 -0.159852
0.625964 -0.073298 -0.187604
0.010386 -0.073298 0.162858
0.010388 -0.073298 0.047743
0.010388 -0.073298 -0.039291
0.010388 -0.073298 -0.113071
0.010388 -0.073298 -0.332960
0.010388 -0.073298 -0.484140
-0.226964 -0.073298 0.170894
-0.211359 -0.073298 0.050869
-0.205957 -0.073298 -0.039819
-0.208424 -0.073298 -0.113071
-0.201026 -0.073298 -0.311688
-0.193887 -0.073298 -0.457195
0.217211 -0.073298 0.148120
0.206045 -0.073298 0.040248
0.206045 -0.073298 -0.040212
0.206045 -0.073298 -0.113425
0.206045 -0.073298 -0.310451
0.223136 -0.073298 -0.466256
0.393637 -0.073298 0.138095
0.393637 -0.073298 0.036957
0.393637 -0.073298 -0.032377
0.393637 -0.073298 -0.113071
0.393637 -0.073298 -0.266140
0.411563 -0.073298 -0.421963
-0.410016 -0.073298 0.118763
-0.427374 -0.073298 0.025297
-0.417670 -0.073298 -0.050443
-0.408984 -0.073298 -0.113172
-0.392896 -0.073298 -0.305254
-0.292977 -0.073298 -0.417940
-0.343664 -0.073298 -0.445631
-0.451611 -0.073298 -0.338709
-0.520135 -0.073298 -0.108812
-0.564326 -0.073298 -0.039819
-0.542882 -0.073298 0.028212
-0.522825 -0.073298 0.126841
0.701892 -0.073298 0.065620
0.700315 -0.073298 -0.028944
0.720589 -0.073298 -0.077052
0.698006 -0.073298 -0.137179
0.700143 -0.073298 -0.185527
0.697006 -0.073298 -0.227574
0.660874 -0.073298 -0.207260
0.661578 -0.073298 -0.164813
0.662772 -0.073298 -0.124613
0.665524 -0.073298 -0.077662
0.666530 -0.073298 -0.032824
0.668039 -0.073298 0.054656
0.709668 -0.073298 -0.192863
0.708983 -0.073298 -0.233952
0.724439 -0.073298 -0.205607
0.723862 -0.073298 -0.240184
0.735341 -0.073298 -0.215261
0.734850 -0.073298 -0.244779
0.749895 -0.073298 -0.229550
0.749580 -0.073298 -0.248390
0.765732 -0.073298 -0.246993
0.767031 -0.073298 -0.250358
0.741230 -0.073298 -0.150484
0.734626 -0.073298 -0.195202
0.759630 -0.073298 -0.155876
0.753028 -0.073298 -0.200593
0.780055 -0.073298 -0.168421
0.773606 -0.073298 -0.203931
0.797883 -0.073298 -0.177770
0.791542 -0.073298 -0.206838
0.832465 -0.073298 -0.198162
0.832294 -0.073298 -0.208490
0.864339 -0.073298 -0.203496
0.852134 -0.073298 -0.209036
0.758798 -0.073298 -0.087528
0.775833 -0.073298 -0.159804
0.791060 -0.073298 -0.092969
0.797642 -0.073298 -0.165752
0.812932 -0.073298 -0.095117
0.827800 -0.073298 -0.167351
0.840788 -0.073298 -0.103025
0.862871 -0.073298 -0.171087
0.873694 -0.073298 -0.118991
0.873135 -0.073298 -0.173616
0.881594 -0.073298 -0.122886
0.886937 -0.073298 -0.171838
0.891127 -0.073298 -0.130401
0.913241 -0.073298 -0.168021
0.913419 -0.073298 -0.130250
0.931947 -0.073298 -0.164541
0.932086 -0.073298 -0.129067
0.937910 -0.073298 -0.161744
0.937933 -0.073298 -0.133235
0.941907 -0.073298 -0.158143
0.941815 -0.073298 -0.136642
0.945519 -0.073298 -0.141324
0.945218 -0.073298 -0.132324
0.724437 -0.073298 -0.020557
0.740651 -0.073298 -0.057750
0.744680 -0.073298 -0.008059
0.758524 -0.073298 -0.051188
0.772081 -0.073298 -0.000851
0.779984 -0.073298 -0.053870
0.799341 -0.073298 0.001117
0.804704 -0.073298 -0.060337
0.820013 -0.073298 0.008490
0.825268 -0.073298 -0.059391
0.837565 -0.073298 0.011867
0.858542 -0.073298 -0.047848
0.858781 -0.073298 0.018926
0.890080 -0.073298 -0.018992
0.861296 -0.073298 0.026490
0.892596 -0.073298 -0.011428
0.868620 -0.073298 0.028258
0.894415 -0.073298 -0.002990
0.879410 -0.073298 0.021003
0.888622 -0.073298 0.009844
-0.319384 -0.073298 0.152621
-0.259075 -0.073298 0.173265
-0.322593 -0.073298 0.164082
-0.287834 -0.073298 0.179456
-0.143431 -0.073298 0.153612
-0.143431 -0.073298 0.049940
-0.143431 -0.073298 -0.039291
-0.143431 -0.073298 -0.113071
-0.143431 -0.073298 -0.323772
-0.143431 -0.073298 -0.461828
0.157146 -0.073298 0.119354
0.154753 -0.073298 0.041482
0.154753 -0.073298 -0.039292
0.154753 -0.073298 -0.113071
0.154753 -0.073298 -0.325737
0.142271 -0.073298 -0.460054
0.766243 -0.073298 -0.248316
0.749771 -0.073298 -0.236955
0.735147 -0.073298 -0.226863
0.724212 -0.073298 -0.219197
0.709400 -0.073298 -0.209013
0.698910 -0.073298 -0.202053
0.661302 -0.073298 -0.181496
0.626643 -0.073298 -0.168914
0.610658 -0.073298 -0.209732
0.595641 -0.073298 -0.219092
0.575026 -0.073298 -0.261357
0.542446 -0.073298 -0.277097
0.500000 -0.073298 -0.306061
0.393637 -0.073298 -0.323780
0.295040 -0.073298 -0.344295
0.206045 -0.073298 -0.380528
0.154753 -0.073298 -0.392041
0.085830 -0.073298 -0.404160
0.010388 -0.073298 -0.393783
-0.079756 -0.073298 -0.387929
-0.143431 -0.073298 -0.380061
-0.198598 -0.073298 -0.367977
-0.287532 -0.073298 -0.365181
-0.334967 -0.073298 -0.351402
-0.386496 -0.073298 -0.385873
-0.406071 -0.073298 -0.405014
0.860460 -0.073298 -0.205257
0.832412 -0.073298 -0.201444
0.795869 -0.073298 -0.187008
0.778005 -0.073298 -0.179706
0.757532 -0.073298 -0.170087
0.739132 -0.073298 -0.164695
0.698684 -0.073298 -0.152543
0.662393 -0.073298 -0.137388
0.630621 -0.073298 -0.127303
0.616986 -0.073298 -0.162838
0.599121 -0.073298 -0.170715
0.578754 -0.073298 -0.201984
0.542450 -0.073298 -0.198190
0.500000 -0.073298 -0.201099
0.393637 -0.073298 -0.199672
0.295040 -0.073298 -0.204998
0.206045 -0.073298 -0.203365
0.154753 -0.073298 -0.204865
0.085830 -0.073298 -0.206296
0.010388 -0.073298 -0.203451
-0.079756 -0.073298 -0.202242
-0.143431 -0.073298 -0.201680
-0.206073 -0.073298 -0.200398
-0.291180 -0.073298 -0.200105
-0.400501 -0.073298 -0.197658
-0.525839 -0.073298 -0.204062
-0.607642 -0.073298 -0.257749
-0.446069 -0.073298 -0.418705
-0.428888 -0.073298 -0.460637
-0.472400 -0.073298 -0.415536
-0.469347 -0.073298 -0.462230
-0.510815 -0.073298 -0.411611
-0.507900 -0.073298 -0.452628
-0.550782 -0.073298 -0.414147
-0.538275 -0.073298 -0.449453
-0.571215 -0.073298 -0.428581
-0.548257 -0.073298 -0.458352
-0.582394 -0.073298 -0.443495
-0.549134 -0.073298 -0.469128
-0.589276 -0.073298 -0.461442
-0.557127 -0.073298 -0.481835
-0.584538 -0.073298 -0.486021
-0.554954 -0.073298 -0.490533
-0.574299 -0.073298 -0.498496
-0.551745 -0.073298 -0.493650
-0.561414 -0.073298 -0.501926
-0.553761 -0.073298 -0.500281
0.714174 -0.073298 0.069836
0.712677 -0.073298 -0.019978
0.731642 -0.073298 0.075331
0.730491 -0.073298 0.006293
0.744060 -0.073298 0.077353
0.746233 -0.073298 0.000975
0.747020 -0.073298 0.086678
0.749057 -0.073298 0.002168
0.755897 -0.073298 0.089200
0.757895 -0.073298 0.002456
0.770187 -0.073298 0.092063
0.772232 -0.073298 0.008077
-0.653201 -0.073298 0.035151
-0.523170 -0.073298 0.086135
-0.429640 -0.073298 0.077828
-0.295643 -0.073298 0.113645
-0.206286 -0.073298 0.138945
-0.143431 -0.073298 0.127446
-0.080932 -0.073298 0.112545
0.010388 -0.073298 0.133268
0.074081 -0.073298 0.102435
0.156538 -0.073298 0.077716
0.214366 -0.073298 0.106501
0.295040 -0.073298 0.073481
0.393637 -0.073298 0.104578
0.500000 -0.073298 0.093849
0.537672 -0.073298 0.079854
0.579919 -0.073298 0.006422
0.600942 -0.073298 -0.017789
0.622366 -0.073298 -0.003811
0.637726 -0.073298 0.004191
0.667340 -0.073298 0.013436
0.701176 -0.073298 0.022596
0.713477 -0.073298 0.028021
0.731033 -0.073298 0.038805
0.744297 -0.073298 0.038959
0.747223 -0.073298 0.046214
0.756091 -0.073298 0.048166
0.770349 -0.073298 0.049104
0.780980 -0.073298 0.045656
0.782983 -0.073298 0.011696
0.801312 -0.073298 0.045485
0.801249 -0.073298 0.019251
0.819318 -0.073298 0.045964
0.819408 -0.073298 0.028807
0.824254 -0.073298 0.042603
0.824545 -0.073298 0.037495
0.776066 -0.073298 0.093002
0.776393 -0.073298 0.060076
0.781445 -0.073298 0.089780
0.780538 -0.073298 0.069528
0.797127 -0.073298 0.089182
0.796529 -0.073298 0.072374
0.800615 -0.073298 0.083519
0.800184 -0.073298 0.076846
-0.196737 -0.073298 -0.462722
-0.177159 -0.073298 -0.467609
-0.211473 -0.073298 -0.479539
-0.204253 -0.073298 -0.484819
-0.213839 -0.073298 -0.486031
-0.140598 -0.073379 -0.465956
-0.073394 -0.072427 -0.467687
-0.110997 -0.073186 -0.472543
-0.105596 -0.072880 -0.472786
-0.533851 -0.073298 -0.344329
-0.422594 -0.073298 -0.403733
-0.515842 -0.073298 -0.362266
-0.462576 -0.073298 -0.394995
-0.514989 -0.073298 -0.370247
-0.475715 -0.073298 -0.395974
-0.513251 -0.073298 -0.379343
-0.490587 -0.073298 -0.396416
-0.508515 -0.073298 -0.389016
-0.505203 -0.073298 -0.391511
-0.613475 -0.073298 -0.259400
-0.604898 -0.073298 -0.299335
-0.678939 -0.073298 -0.253059
-0.674363 -0.073298 -0.284972
-0.708293 -0.073298 -0.255576
-0.704178 -0.073298 -0.284588
-0.723622 -0.073298 -0.267713
-0.719273 -0.073298 -0.286386
-0.729501 -0.073298 -0.275274
-0.726791 -0.073298 -0.283615
-0.635255 -0.073298 -0.205861
-0.631594 -0.073298 -0.241038
-0.642328 -0.073298 -0.215381
-0.639854 -0.073298 -0.229948
-0.702276 -0.073298 -0.106616
-0.640711 -0.073298 -0.175303
-0.685613 -0.073298 -0.132722
-0.665840 -0.073298 -0.154787
-0.340944 -0.073298 0.172926
-0.323784 -0.073298 0.187976
-0.355235 -0.073298 0.177936
-0.348029 -0.073298 0.191618
-0.364391 -0.073298 0.178593
-0.366998 -0.073298 0.188762
-0.368349 -0.073298 0.180500
-0.369566 -0.073298 0.183549
0.262544 -0.073298 -0.443170
0.255508 -0.073298 -0.366536
0.255508 -0.073298 -0.293687
0.255508 -0.073298 -0.206106
0.255508 -0.073298 -0.120737
0.255508 -0.073298 -0.050101
0.255508 -0.073298 0.027901
0.258935 -0.073298 0.095648
0.260105 -0.073298 0.136586
-0.626681 -0.073298 0.107900
-0.665939 -0.073298 0.062014
-0.649197 -0.073298 0.117837
-0.685640 -0.073298 0.080936
-0.694518 -0.073298 0.130794
-0.718024 -0.073298 0.102342
-0.753238 -0.073298 0.135002
-0.757351 -0.073298 0.110633
-0.779793 -0.073298 0.125033
-0.770915 -0.073298 0.106941
-0.795200 -0.073298 0.104924
-0.775593 -0.073298 0.100914
-0.796476 -0.073298 0.085260
-0.780541 -0.073298 0.084424
-0.783610 -0.073298 0.071377
-0.774567 -0.073298 0.073441
-0.770210 -0.073298 0.064954
-0.768061 -0.073298 0.069847
-0.757652 -0.073298 0.065594
-0.760977 -0.073298 0.069079
-0.752364 -0.073298 0.071088
-0.755543 -0.073298 0.073121
-0.752460 -0.073298 0.072915
-0.753527 -0.073298 0.073597
</float_array>
          <technique_common>
            <accessor source="#pPlane2-POSITION-array" count="401" stride="3">
              <param name="X" type="float"/>
              <param name="Y" type="float"/>
              <param name="Z" type="float"/>
            </accessor>
          </technique_common>
        </source>
        <source id="pPlane2-Normal0">
          <float_array id="pPlane2-Normal0-array" count="5013">
-0.000000 1.000000 0.000000
0.000000 1.000000 0.000000
-0.000000 1.000000 0.000000
0.000000 1.000000 0.000000
-0.000000 1.000000 0.000000
-0.000000 1.000000 0.000000
0.000000 1.000000 0.000000
-0.000000 1.000000 0.000000
-0.000000 1.000000 0.000000
-0.000000 1.000000 0.000000
-0.000000 1.000000 0.000000
-0.000000 1.000000 0.000000
0.000000 1.000000 0.000000
0.000000 1.000000 0.000000
-0.000000 1.000000 0.000000
-0.000000 1.000000 0.000000
0.000000 1.000000 0.000000
0.000000 1.000000 0.000000
-0.000000 1.000000 0.000000
0.000000 1.000000 0.000000
0.000000 1.000000 0.000000
0.000000 1.000000 0.000000
-0.000000 1.000000 0.000000
-0.000000 1.000000 0.000000
-0.000000 1.000000 0.000000
-0.000000 1.000000 0.000000
-0.000000 1.000000 0.000000
-0.000000 1.000000 0.000000
-0.000000 1.000000 0.000000
-0.000000 1.000000 0.000000
-0.000000 1.000000 0.000000
-0.000000 1.000000 0.000000
-0.000000 1.000000 0.000000
-0.000000 1.000000 0.000000
-0.000000 1.000000 0.000000
-0.000000 1.000000 0.000000
-0.000000 1.000000 0.000000
-0.000000 1.000000 0.000000
-0.000000 1.000000 0.000000
-0.000000 1.000000 0.000000
-0.000000 1.000000 0.000000
0.000000 1.000000 -0.000000
0.000000 1.000000 0.000000
-0.000000 1.000000 0.000000
0.000000 1.000000 0.000000
0.000000 1.000000 0.000000
-0.000000 1.000000 0.000000
-0.000000 1.000000 -0.000000
-0.000000 1.000000 0.000000
0.000000 1.000000 0.000000
0.000000 1.000000 0.000000
0.000000 1.000000 0.000000
0.000000 1.000000 0.000000
0.000000 1.000000 0.000000
-0.000000 1.000000 0.000000
-0.000000 1.000000 0.000000
0.000000 1.000000 0.000000
-0.000000 1.000000 0.000000
0.000000 1.000000 0.000000
0.000000 1.000000 -0.000000
-0.000000 1.000000 0.000000
-0.000000 1.000000 0.000000
0.000000 1.000000 -0.000000
0.000000 1.000000 -0.000000
-0.000000 1.000000 0.000000
-0.000000 1.000000 -0.000000
0.000000 1.000000 -0.000000
0.000000 1.000000 -0.000000
-0.000000 1.000000 0.000000
0.000000 1.000000 -0.000000
0.000000 1.000000 -0.000000
0.000000 1.000000 -0.000000
-0.000000 1.000000 0.000000
0.000000 1.000000 -0.000000
-0.000000 1.000000 -0.000000
-0.000000 1.000000 -0.000000
0.000000 1.000000 -0.000000
-0.000000 1.000000 -0.000000
0.000000 1.000000 0.000000
-0.000000 1.000000 -0.000000
0.000000 1.000000 0.000000
-0.000000 1.000000 -0.000000
0.000000 1.000000 0.000000
-0.000000 1.000000 -0.000000
0.000000 1.000000 -0.000000
0.000000 1.000000 0.000000
0.000000 1.000000 -0.000000
0.000000 1.000000 -0.000000
0.000000 1.000000 -0.000000
0.000000 1.000000 -0.000000
-0.000000 1.000000 -0.000000
0.000000 1.000000 0.000000
0.000000 1.000000 -0.000000
0.000000 1.000000 0.000000
-0.000000 1.000000 -0.000000
0.000000 1.000000 -0.000000
0.000000 1.000000 -0.000000
0.000000 1.000000 -0.000000
0.000000 1.000000 -0.000000
0.000000 1.000000 -0.000000
0.000000 1.000000 -0.000000
0.000000 1.000000 -0.000000
0.000000 1.000000 -0.000000
-0.000000 1.000000 0.000000
-0.000000 1.000000 -0.000000
-0.000000 1.000000 0.000000
0.000000 1.000000 -0.000000
0.000000 1.000000 0.000000
-0.000000 1.000000 -0.000000
0.000000 1.000000 0.000000
-0.000000 1.000000 -0.000000
-0.000000 1.000000 -0.000000
0.000000 1.000000 0.000000
-0.000000 1.000000 0.000000
0.000000 1.000000 -0.000000
-0.000000 1.000000 -0.000000
0.000000 1.000000 -0.000000
0.000000 1.000000 -0.000000
-0.000000 1.000000 -0.000000
0.000000 1.000000 -0.000000
0.000000 1.000000 0.000000
0.000000 1.000000 0.000000
0.000000 1.000000 0.000000
0.000000 1.000000 0.000000
0.000000 1.000000 0.000000
-0.000000 1.000000 0.000000
0.000000 1.000000 -0.000000
-0.000000 1.000000 -0.000000
0.000000 1.000000 -0.000000
-0.000000 1.000000 -0.000000
0.000000 1.000000 -0.000000
0.000000 1.000000 0.000000
0.000000 1.000000 -0.000000
-0.000000 1.000000 -0.000000
-0.000000 1.000000 -0.000000
-0.000000 1.000000 -0.000000
0.000000 1.000000 -0.000000
0.000000 1.000000 -0.000000
0.000000 1.000000 -0.000000
0.000000 1.000000 -0.000000
0.000000 1.000000 -0.000000
0.000000 1.000000 -0.000000
0.000000 1.000000 -0.000000
0.000000 1.000000 -0.000000
0.000000 1.000000 -0.000000
-0.000000 1.000000 0.000000
-0.000000 1.000000 0.000000
0.000000 1.000000 -0.000000
-0.000000 1.000000 0.000000
0.000000 1.000000 0.000000
-0.000000 1.000000 0.000000
-0.000000 1.000000 0.000000
-0.000000 1.000000 0.000000
-0.000000 1.000000 0.000000
-0.000000 1.000000 0.000000
-0.000000 1.000000 0.000000
-0.000000 1.000000 0.000000
0.000000 1.000000 -0.000000
-0.000000 1.000000 0.000000
0.000000 1.000000 -0.000000
-0.000000 1.000000 0.000000
0.000000 1.000000 -0.000000
0.000000 1.000000 -0.000000
0.000000 1.000000 -0.000000
0.000000 1.000000 -0.000000
0.000000 1.000000 -0.000000
0.000000 1.000000 -0.000000
0.000000 1.000000 -0.000000
0.000000 1.000000 -0.000000
0.000000 1.000000 -0.000000
-0.000000 1.000000 -0.000000
0.000000 1.000000 -0.000000
0.000000 1.000000 -0.000000
0.000000 1.000000 -0.000000
-0.000000 1.000000 0.000000
0.000000 1.000000 0.000000
0.000000 1.000000 0.000000
0.000000 1.000000 0.000000
-0.000000 1.000000 0.000000
-0.000000 1.000000 0.000000
-0.000000 1.000000 0.000000
-0.000000 1.000000 -0.000000
-0.000000 1.000000 0.000000
0.000000 1.000000 0.000000
-0.000000 1.000000 0.000000
-0.000000 1.000000 -0.000000
0.000000 1.000000 0.000000
-0.000000 1.000000 -0.000000
0.000000 1.000000 -0.000000
0.000000 1.000000 -0.000000
-0.000000 1.000000 0.000000
0.000000 1.000000 0.000000
-0.000000 1.000000 -0.000000
0.000000 1.000000 -0.000000
0.000000 1.000000 -0.000000
-0.000000 1.000000 -0.000000
-0.000000 1.000000 -0.000000
0.000000 1.000000 -0.000000
-0.000000 1.000000 -0.000000
0.000000 1.000000 -0.000000
0.000000 1.000000 -0.000000
0.000000 1.000000 -0.000000
-0.000000 1.000000 -0.000000
-0.000000 1.000000 0.000000
-0.000000 1.000000 0.000000
0.000000 1.000000 0.000000
0.000000 1.000000 0.000000
0.000000 1.000000 0.000000
-0.000000 1.000000 0.000000
-0.000000 1.000000 0.000000
-0.000000 1.000000 0.000000
0.000000 1.000000 0.000000
-0.000000 1.000000 -0.000000
0.000000 1.000000 0.000000
-0.000000 1.000000 -0.000000
-0.000000 1.000000 -0.000000
-0.000000 1.000000 -0.000000
0.000000 1.000000 0.000000
-0.000000 1.000000 0.000000
-0.000000 1.000000 -0.000000
-0.000000 1.000000 0.000000
-0.000000 1.000000 -0.000000
-0.000000 1.000000 -0.000000
-0.000000 1.000000 -0.000000
-0.000000 1.000000 -0.000000
-0.000000 1.000000 -0.000000
-0.000000 1.000000 -0.000000
-0.000000 1.000000 -0.000000
-0.000000 1.000000 -0.000000
-0.000000 1.000000 0.000000
-0.000000 1.000000 0.000000
-0.000000 1.000000 0.000000
-0.000000 1.000000 -0.000000
-0.000000 1.000000 -0.000000
-0.000000 1.000000 0.000000
0.000000 1.000000 -0.000000
0.000000 1.000000 0.000000
0.000000 1.000000 -0.000000
-0.000000 1.000000 0.000000
-0.000000 1.000000 0.000000
-0.000000 1.000000 -0.000000
-0.000000 1.000000 0.000000
-0.000000 1.000000 0.000000
-0.000000 1.000000 0.000000
-0.000000 1.000000 -0.000000
0.000000 1.000000 0.000000
-0.000000 1.000000 0.000000
-0.000000 1.000000 -0.000000
-0.000000 1.000000 0.000000
-0.000000 1.000000 -0.000000
-0.000000 1.000000 0.000000
0.000000 1.000000 -0.000000
-0.000000 1.000000 -0.000000
0.000000 1.000000 -0.000000
-0.000000 1.000000 -0.000000
0.000000 1.000000 -0.000000
-0.000000 1.000000 -0.000000
0.000000 1.000000 -0.000000
-0.000000 1.000000 -0.000000
0.000000 1.000000 0.000000
-0.000000 1.000000 0.000000
0.000000 1.000000 0.000000
-0.000000 1.000000 -0.000000
0.000000 1.000000 -0.000000
-0.000000 1.000000 0.000000
0.000000 1.000000 -0.000000
0.000000 1.000000 -0.000000
0.000000 1.000000 -0.000000
-0.000000 1.000000 0.000000
0.000000 1.000000 0.000000
0.000000 1.000000 0.000000
0.000000 1.000000 -0.000000
-0.000000 1.000000 0.000000
0.000000 1.000000 -0.000000
0.000000 1.000000 0.000000
-0.000000 1.000000 -0.000000
-0.000000 1.000000 0.000000
0.000000 1.000000 0.000000
0.000000 1.000000 -0.000000
0.000000 1.000000 0.000000
-0.000000 1.000000 0.000000
0.000000 1.000000 -0.000000
0.000000 1.000000 -0.000000
-0.000000 1.000000 0.000000
0.000000 1.000000 -0.000000
-0.000000 1.000000 0.000000
0.000000 1.000000 -0.000000
0.000000 1.000000 0.000000
-0.000000 1.000000 -0.000000
0.000000 1.000000 0.000000
0.000000 1.000000 -0.000000
0.000000 1.000000 -0.000000
-0.000000 1.000000 0.000000
-0.000000 1.000000 -0.000000
-0.000000 1.000000 0.000000
0.000000 1.000000 -0.000000
0.000000 1.000000 0.000000
0.000000 1.000000 0.000000
-0.000000 1.000000 0.000000
-0.000000 1.000000 0.000000
0.000000 1.000000 0.000000
0.000000 1.000000 0.000000
0.000000 1.000000 0.000000
0.000000 1.000000 0.000000
0.000000 1.000000 0.000000
0.000000 1.000000 0.000000
0.000000 1.000000 0.000000
-0.000000 1.000000 0.000000
0.000000 1.000000 0.000000
-0.000000 1.000000 0.000000
0.000000 1.000000 0.000000
0.000000 1.000000 0.000000
0.000000 1.000000 0.000000
0.000000 1.000000 -0.000000
-0.000000 1.000000 0.000000
0.000000 1.000000 -0.000000
0.000000 1.000000 0.000000
-0.000000 1.000000 -0.000000
-0.000000 1.000000 -0.000000
0.000000 1.000000 0.000000
0.000000 1.000000 -0.000000
0.000000 1.000000 0.000000
-0.000000 1.000000 -0.000000
-0.000000 1.000000 0.000000
0.000000 1.000000 -0.000000
0.000000 1.000000 -0.000000
0.000000 1.000000 -0.000000
0.000000 1.000000 -0.000000
0.000000 1.000000 -0.000000
0.000000 1.000000 -0.000000
0.000000 1.000000 0.000000
-0.000000 1.000000 0.000000
0.000000 1.000000 0.000000
-0.000000 1.000000 0.000000
0.000000 1.000000 0.000000
0.000000 1.000000 0.000000
0.000000 1.000000 0.000000
0.000000 1.000000 -0.000000
-0.000000 1.000000 0.000000
0.000000 1.000000 -0.000000
0.000000 1.000000 0.000000
0.000000 1.000000 -0.000000
0.000000 1.000000 -0.000000
-0.000000 1.000000 -0.000000
0.000000 1.000000 -0.000000
-0.000000 1.000000 -0.000000
0.000000 1.000000 -0.000000
0.000000 1.000000 -0.000000
-0.000000 1.000000 -0.000000
0.000000 1.000000 -0.000000
0.000000 1.000000 -0.000000
0.000000 1.000000 -0.000000
-0.000000 1.000000 -0.000000
-0.000000 1.000000 0.000000
-0.000000 1.000000 -0.000000
0.000000 1.000000 0.000000
0.000000 1.000000 -0.000000
0.000000 1.000000 0.000000
-0.000000 1.000000 -0.000000
-0.000000 1.000000 -0.000000
-0.000000 1.000000 0.000000
0.000000 1.000000 0.000000
0.000000 1.000000 0.000000
0.000000 1.000000 0.000000
-0.000000 1.000000 0.000000
-0.000000 1.000000 0.000000
-0.000000 1.000000 0.000000
-0.000000 1.000000 0.000000
0.000000 1.000000 0.000000
-0.000000 1.000000 0.000000
-0.000000 1.000000 0.000000
0.000000 1.000000 -0.000000
0.000000 1.000000 -0.000000
-0.000000 1.000000 0.000000
-0.000000 1.000000 0.000000
-0.000000 1.000000 0.000000
0.000000 1.000000 -0.000000
0.000000 1.000000 -0.000000
0.000000 1.000000 -0.000000
0.000000 1.000000 -0.000000
-0.000000 1.000000 0.000000
0.000000 1.000000 -0.000000
0.000000 1.000000 -0.000000
0.000000 1.000000 -0.000000
0.000000 1.000000 -0.000000
0.000000 1.000000 0.000000
-0.000000 1.000000 -0.000000
0.000000 1.000000 0.000000
0.000000 1.000000 -0.000000
0.000000 1.000000 -0.000000
-0.000000 1.000000 0.000000
-0.000000 1.000000 0.000000
-0.000000 1.000000 0.000000
-0.000000 1.000000 0.000000
-0.000000 1.000000 0.000000
-0.000000 1.000000 0.000000
-0.000000 1.000000 0.000000
0.000000 1.000000 0.000000
-0.000000 1.000000 0.000000
0.000000 1.000000 0.000000
-0.000000 1.000000 0.000000
0.000000 1.000000 -0.000000
0.000000 1.000000 -0.000000
0.000000 1.000000 -0.000000
0.000000 1.000000 0.000000
0.000000 1.000000 -0.000000
0.000000 1.000000 -0.000000
0.000000 1.000000 -0.000000
0.000000 1.000000 -0.000000
-0.000000 1.000000 -0.000000
0.000000 1.000000 -0.000000
-0.000000 1.000000 -0.000000
0.000000 1.000000 -0.000000
-0.000000 1.000000 -0.000000
-0.000000 1.000000 0.000000
0.000000 1.000000 0.000000
-0.000000 1.000000 0.000000
0.000000 1.000000 0.000000
-0.000000 1.000000 0.000000
-0.000000 1.000000 0.000000
-0.000000 1.000000 0.000000
-0.000000 1.000000 0.000000
-0.000000 1.000000 0.000000
-0.000000 1.000000 0.000000
-0.000000 1.000000 0.000000
-0.000000 1.000000 0.000000
-0.000000 1.000000 0.000000
-0.000000 1.000000 0.000000
-0.000000 1.000000 0.000000
-0.000000 1.000000 0.000000
-0.000000 1.000000 0.000000
-0.000000 1.000000 0.000000
-0.000000 1.000000 0.000000
-0.000000 1.000000 -0.000000
-0.000000 1.000000 0.000000
-0.000000 1.000000 -0.000000
-0.000000 1.000000 0.000000
0.000000 1.000000 -0.000000
0.000000 1.000000 -0.000000
0.000000 1.000000 -0.000000
-0.000000 1.000000 -0.000000
0.000000 1.000000 -0.000000
0.000000 1.000000 -0.000000
0.000000 1.000000 -0.000000
0.000000 1.000000 0.000000
0.000000 1.000000 -0.000000
-0.000000 1.000000 0.000000
-0.000000 1.000000 0.000000
0.000000 1.000000 -0.000000
-0.000000 1.000000 -0.000000
0.000000 1.000000 0.000000
0.000000 1.000000 -0.000000
-0.000000 1.000000 -0.000000
0.000000 1.000000 -0.000000
0.000000 1.000000 0.000000
0.000000 1.000000 0.000000
-0.000000 1.000000 -0.000000
-0.000000 1.000000 -0.000000
0.000000 1.000000 0.000000
-0.000000 1.000000 -0.000000
0.000000 1.000000 -0.000000
0.000000 1.000000 0.000000
-0.000000 1.000000 -0.000000
-0.000000 1.000000 0.000000
0.000000 1.000000 -0.000000
-0.000000 1.000000 0.000000
-0.000000 1.000000 -0.000000
-0.000000 1.000000 0.000000
-0.000000 1.000000 0.000000
-0.000000 1.000000 0.000000
-0.000000 1.000000 0.000000
-0.000000 1.000000 0.000000
-0.000000 1.000000 0.000000
-0.000000 1.000000 0.000000
0.000000 1.000000 0.000000
0.000000 1.000000 0.000000
-0.000000 1.000000 0.000000
0.000000 1.000000 0.000000
-0.000000 1.000000 0.000000
-0.000000 1.000000 0.000000
-0.000000 1.000000 0.000000
-0.000000 1.000000 0.000000
-0.000000 1.000000 -0.000000
-0.000000 1.000000 0.000000
-0.000000 1.000000 0.000000
0.000000 1.000000 0.000000
-0.000000 1.000000 0.000000
-0.000000 1.000000 0.000000
-0.000000 1.000000 -0.000000
-0.000000 1.000000 0.000000
-0.000000 1.000000 0.000000
-0.000000 1.000000 0.000000
-0.000000 1.000000 0.000000
0.000000 1.000000 -0.000000
-0.000000 1.000000 -0.000000
0.000000 1.000000 -0.000000
-0.000000 1.000000 0.000000
-0.000000 1.000000 0.000000
0.000000 1.000000 -0.000000
-0.000000 1.000000 -0.000000
-0.000000 1.000000 -0.000000
-0.000000 1.000000 -0.000000
0.000000 1.000000 -0.000000
0.000000 1.000000 -0.000000
0.000000 1.000000 0.000000
0.000000 1.000000 -0.000000
0.000000 1.000000 0.000000
0.000000 1.000000 -0.000000
0.000000 1.000000 -0.000000
0.000000 1.000000 0.000000
-0.000000 1.000000 0.000000
0.000000 1.000000 0.000000
0.000000 1.000000 -0.000000
0.000000 1.000000 0.000000
-0.000000 1.000000 0.000000
-0.000000 1.000000 0.000000
-0.000000 1.000000 -0.000000
-0.000000 1.000000 -0.000000
-0.000000 1.000000 0.000000
-0.000000 1.000000 -0.000000
-0.000000 1.000000 -0.000000
-0.000000 1.000000 -0.000000
-0.000000 1.000000 0.000000
-0.000000 1.000000 0.000000
0.000000 1.000000 0.000000
-0.000000 1.000000 0.000000
-0.000000 1.000000 -0.000000
-0.000000 1.000000 0.000000
-0.000000 1.000000 -0.000000
0.000000 1.000000 0.000000
0.000000 1.000000 -0.000000
-0.000000 1.000000 -0.000000
-0.000000 1.000000 0.000000
0.000000 1.000000 0.000000
-0.000000 1.000000 -0.000000
-0.000000 1.000000 -0.000000
0.000000 1.000000 -0.000000
-0.000000 1.000000 -0.000000
-0.000000 1.000000 -0.000000
-0.000000 1.000000 0.000000
0.000000 1.000000 0.000000
0.000000 1.000000 0.000000
0.000000 1.000000 -0.000000
0.000000 1.000000 -0.000000
0.000000 1.000000 0.000000
0.000000 1.000000 0.000000
-0.000000 1.000000 -0.000000
-0.000000 1.000000 -0.000000
0.000000 1.000000 0.000000
0.000000 1.000000 0.000000
0.000000 1.000000 0.000000
-0.000000 1.000000 -0.000000
-0.000000 1.000000 -0.000001
-0.000000 1.000000 -0.000000
-0.000000 1.000000 -0.000000
-0.000000 1.000000 -0.000000
-0.000000 1.000000 -0.000000
-0.000000 1.000000 -0.000001
-0.000000 1.000000 -0.000000
-0.000000 1.000000 -0.000000
-0.000000 1.000000 -0.000001
-0.000000 1.000000 -0.000000
-0.000000 1.000000 -0.000001
-0.000000 1.000000 -0.000001
-0.000000 1.000000 -0.000001
0.000000 1.000000 0.000000
-0.000000 1.000000 -0.000000
0.000000 1.000000 -0.000001
-0.000000 1.000000 -0.000000
0.000000 1.000000 0.000000
0.000000 1.000000 -0.000000
0.000000 1.000000 -0.000000
0.000000 1.000000 -0.000000
0.000000 1.000000 -0.000000
0.000000 1.000000 -0.000000
0.000000 1.000000 -0.000000
0.000000 1.000000 -0.000000
0.000000 1.000000 -0.000000
0.000000 1.000000 -0.000000
0.000000 1.000000 -0.000000
0.000000 1.000000 -0.000000
0.000000 1.000000 -0.000000
0.000000 1.000000 -0.000000
0.000000 1.000000 -0.000000
0.000000 1.000000 -0.000000
0.000000 1.000000 -0.000000
0.000000 1.000000 -0.000000
0.000000 1.000000 -0.000000
0.000000 1.000000 -0.000000
0.000000 1.000000 -0.000001
-0.000000 1.000000 0.000000
0.000000 1.000000 -0.000001
0.000000 1.000000 -0.000000
0.000000 1.000000 -0.000000
-0.000000 1.000000 0.000001
-0.000000 1.000000 0.000000
-0.000000 1.000000 -0.000001
-0.000000 1.000000 -0.000001
-0.000000 1.000000 0.000000
0.000000 1.000000 -0.000001
-0.000000 1.000000 -0.000001
-0.000000 1.000000 0.000000
-0.000000 1.000000 0.000001
-0.000000 1.000000 0.000000
-0.000000 1.000000 -0.000001
-0.000000 1.000000 0.000000
0.000000 1.000000 -0.000000
0.000000 1.000000 -0.000000
0.000000 1.000000 -0.000000
0.000000 1.000000 -0.000000
0.000000 1.000000 -0.000000
0.000000 1.000000 -0.000000
-0.000000 1.000000 -0.000000
0.000000 1.000000 -0.000000
-0.000000 1.000000 -0.000000
0.000000 1.000000 -0.000000
-0.000000 1.000000 -0.000000
0.000000 1.000000 -0.000000
-0.000000 1.000000 -0.000000
-0.000000 1.000000 -0.000000
-0.000000 1.000000 -0.000000
-0.000000 1.000000 -0.000000
-0.000000 1.000000 -0.000000
-0.000000 1.000000 -0.000000
0.000000 1.000000 -0.000000
-0.000000 1.000000 -0.000000
0.000000 1.000000 -0.000000
-0.000000 1.000000 -0.000000
0.000000 1.000000 -0.000000
-0.000000 1.000000 -0.000000
0.000000 1.000000 -0.000000
0.000000 1.000000 0.000000
0.000000 1.000000 0.000000
0.000000 1.000000 0.000000
0.000000 1.000000 -0.000000
0.000000 1.000000 -0.000000
0.000000 1.000000 0.000000
-0.000000 1.000000 0.000000
-0.000000 1.000000 0.000000
-0.000000 1.000000 0.000000
0.000000 1.000000 0.000000
0.000000 1.000000 0.000000
-0.000000 1.000000 0.000000
0.000000 1.000000 0.000000
0.000000 1.000000 0.000000
0.000000 1.000000 0.000000
-0.000000 1.000000 0.000000
-0.000000 1.000000 0.000000
0.000000 1.000000 0.000000
0.000000 1.000000 0.000000
0.000000 1.000000 0.000000
0.000000 1.000000 0.000000
0.000000 1.000000 0.000000
-0.000000 1.000000 0.000000
-0.000000 1.000000 0.000000
-0.000000 1.000000 0.000000
0.000000 1.000000 0.000000
-0.000000 1.000000 0.000000
-0.000000 1.000000 0.000000
-0.000000 1.000000 0.000000
0.000000 1.000000 0.000000
-0.000000 1.000000 0.000000
-0.000000 1.000000 0.000000
-0.000000 1.000000 0.000000
0.000000 1.000000 0.000000
0.000000 1.000000 0.000000
0.000000 1.000000 0.000000
0.000001 1.000000 -0.000001
0.000000 1.000000 0.000000
0.000001 1.000000 -0.000001
0.000000 1.000000 0.000000
0.000000 1.000000 -0.000001
0.000000 1.000000 -0.000001
-0.000000 1.000000 -0.000001
0.000001 1.000000 -0.000001
-0.000000 1.000000 -0.000001
0.000000 1.000000 -0.000001
-0.000000 1.000000 -0.000001
-0.000000 1.000000 0.000000
0.000000 1.000000 0.000000
-0.000000 1.000000 0.000000
0.000000 1.000000 0.000000
-0.000000 1.000000 0.000000
0.000000 1.000000 0.000000
0.000000 1.000000 0.000000
0.000000 1.000000 0.000000
0.000000 1.000000 0.000000
0.000000 1.000000 0.000000
0.000000 1.000000 0.000000
0.000000 1.000000 0.000000
0.000000 1.000000 0.000000
0.000000 1.000000 0.000000
0.000000 1.000000 0.000000
0.000000 1.000000 0.000000
0.000000 1.000000 0.000000
0.000000 1.000000 0.000000
-0.000000 1.000000 0.000000
0.000000 1.000000 0.000000
0.000000 1.000000 0.000000
0.000000 1.000000 0.000000
-0.000000 1.000000 0.000000
-0.000000 1.000000 0.000000
-0.000000 1.000000 0.000000
-0.000000 1.000000 0.000000
-0.000000 1.000000 0.000000
-0.000000 1.000000 0.000000
-0.000000 1.000000 0.000000
-0.000000 1.000000 0.000000
-0.000000 1.000000 0.000000
0.000000 1.000000 0.000000
-0.000000 1.000000 0.000000
0.000000 1.000000 0.000000
-0.000000 1.000000 0.000000
0.000000 1.000000 0.000000
0.000000 1.000000 0.000000
0.000000 1.000000 -0.000000
0.000000 1.000000 0.000000
0.000000 1.000000 -0.000000
0.000000 1.000000 0.000000
0.000000 1.000000 -0.000000
-0.000000 1.000000 -0.000000
0.000000 1.000000 -0.000000
-0.000000 1.000000 -0.000001
0.000000 1.000000 -0.000000
-0.000000 1.000000 -0.000000
0.000000 1.000000 -0.000000
-0.000000 1.000000 -0.000001
-0.000000 1.000000 -0.000001
-0.000000 1.000000 -0.000001
-0.000000 1.000000 -0.000001
-0.000000 1.000000 -0.000001
-0.000000 1.000000 -0.000000
-0.000000 1.000000 -0.000001
0.000001 1.000000 0.000001
-0.000000 1.000000 -0.000001
0.000001 1.000000 0.000001
-0.000000 1.000000 -0.000001
0.000001 1.000000 0.000001
-0.000000 1.000000 -0.000000
-0.000000 1.000000 0.000000
-0.000000 1.000000 -0.000000
-0.000000 1.000000 0.000000
-0.000000 1.000000 -0.000000
-0.000000 1.000000 0.000000
0.000000 1.000000 0.000000
-0.000000 1.000000 0.000000
0.000000 1.000000 0.000000
-0.000000 1.000000 0.000000
0.000000 1.000000 0.000000
-0.000000 1.000000 0.000000
-0.000000 1.000000 0.000000
0.000000 1.000000 0.000000
0.000000 1.000000 0.000000
0.000000 1.000000 0.000000
-0.000000 1.000000 0.000000
0.000000 1.000000 0.000000
0.000000 1.000000 0.000000
0.000000 1.000000 -0.000000
0.000000 1.000000 0.000000
0.000000 1.000000 -0.000000
0.000000 1.000000 0.000000
-0.000000 1.000000 -0.000000
-0.000000 1.000000 -0.000000
-0.000000 1.000000 -0.000000
0.000000 1.000000 -0.000000
-0.000000 1.000000 -0.000000
-0.000000 1.000000 -0.000000
-0.000000 1.000000 -0.000000
-0.000000 1.000000 -0.000000
-0.000000 1.000000 0.000000
-0.000000 1.000000 -0.000000
-0.000000 1.000000 0.000000
-0.000000 1.000000 -0.000000
-0.000000 1.000000 0.000000
-0.000000 1.000000 -0.000000
-0.000000 1.000000 -0.000000
-0.000000 1.000000 -0.000000
-0.000000 1.000000 -0.000000
-0.000000 1.000000 -0.000000
-0.000000 1.000000 -0.000000
0.000000 1.000000 0.000000
0.000000 1.000000 0.000000
-0.000000 1.000000 0.000000
-0.000000 1.000000 0.000000
0.000000 1.000000 0.000000
-0.000000 1.000000 0.000000
0.000000 1.000000 0.000000
0.000000 1.000000 0.000000
-0.000000 1.000000 0.000000
0.000000 1.000000 0.000000
0.000000 1.000000 0.000000
0.000000 1.000000 -0.000000
0.000000 1.000000 -0.000000
-0.000000 1.000000 -0.000000
0.000000 1.000000 0.000000
-0.000000 1.000000 -0.000000
0.000000 1.000000 -0.000000
0.000000 1.000000 0.000000
-0.000000 1.000000 -0.000000
0.000000 1.000000 0.000000
0.000000 1.000000 0.000000
0.000000 1.000000 0.000000
-0.000000 1.000000 -0.000000
0.000000 1.000000 0.000000
0.000000 1.000000 -0.000000
0.000000 1.000000 -0.000000
0.000000 1.000000 -0.000000
0.000000 1.000000 -0.000000
0.000000 1.000000 -0.000000
0.000000 1.000000 -0.000000
0.000000 1.000000 -0.000001
0.000000 1.000000 -0.000000
0.000000 1.000000 -0.000001
0.000000 1.000000 -0.000000
-0.000000 1.000000 -0.000000
0.000000 1.000000 -0.000001
-0.000000 1.000000 -0.000000
0.000000 1.000000 0.000000
-0.000000 1.000000 -0.000000
0.000000 1.000000 0.000000
-0.000000 1.000000 -0.000000
0.000000 1.000000 -0.000000
-0.000000 1.000000 -0.000000
0.000000 1.000000 0.000000
-0.000000 1.000000 -0.000000
-0.000000 1.000000 -0.000000
0.000000 1.000000 0.000000
0.000000 1.000000 0.000000
-0.000000 1.000000 -0.000000
0.000000 1.000000 0.000000
0.000000 1.000000 0.000000
-0.000000 1.000000 -0.000000
0.000000 1.000000 0.000000
0.000000 1.000000 0.000000
0.000000 1.000000 0.000000
0.000000 1.000000 -0.000000
0.000000 1.000000 -0.000000
0.000000 1.000000 0.000000
0.000000 1.000000 0.000000
0.000000 1.000000 -0.000000
0.000000 1.000000 -0.000000
-0.000000 1.000000 -0.000000
0.000000 1.000000 -0.000000
0.000000 1.000000 -0.000000
0.000000 1.000000 -0.000000
-0.000000 1.000000 -0.000000
0.000000 1.000000 -0.000000
-0.000000 1.000000 -0.000000
-0.000000 1.000000 0.000000
0.000000 1.000000 -0.000000
-0.000000 1.000000 -0.000000
-0.000000 1.000000 -0.000000
-0.000000 1.000000 -0.000000
-0.000000 1.000000 -0.000001
0.000000 1.000000 -0.000000
0.000000 1.000000 -0.000000
-0.000000 1.000000 0.000000
-0.000000 1.000000 -0.000000
0.000000 1.000000 -0.000000
-0.000000 1.000000 -0.000001
0.000001 1.000000 -0.000000
-0.000000 1.000000 -0.000001
0.000000 1.000000 -0.000000
0.000000 1.000000 -0.000000
0.000001 1.000000 -0.000000
0.000000 1.000000 -0.000000
0.000000 1.000000 0.000000
0.000000 1.000000 0.000000
0.000000 1.000000 -0.000000
0.000001 1.000000 -0.000000
0.000000 1.000000 0.000000
0.000000 1.000000 -0.000000
0.000000 1.000000 -0.000000
0.000000 1.000000 -0.000000
0.000000 1.000000 0.000000
0.000000 1.000000 0.000000
0.000000 1.000000 0.000000
0.000000 1.000000 -0.000000
0.000000 1.000000 -0.000000
0.000000 1.000000 -0.000000
0.000000 1.000000 0.000000
0.000000 1.000000 0.000000
-0.000000 1.000000 0.000000
0.000000 1.000000 -0.000000
0.000000 1.000000 -0.000000
0.000000 1.000000 -0.000000
-0.000000 1.000000 0.000000
0.000000 1.000000 0.000000
-0.000000 1.000000 0.000000
-0.000000 1.000000 0.000000
0.000000 1.000000 0.000000
-0.000000 1.000000 0.000000
-0.000000 1.000000 0.000000
0.000000 1.000000 -0.000000
-0.000000 1.000000 -0.000000
-0.000000 1.000000 0.000000
-0.000000 1.000000 -0.000000
-0.000000 1.000000 0.000000
-0.000000 1.000000 -0.000000
0.000000 1.000000 0.000000
0.000000 1.000000 -0.000000
0.000000 1.000000 -0.000000
0.000000 1.000000 -0.000000
0.000000 1.000000 -0.000000
0.000000 1.000000 -0.000000
0.000000 1.000000 -0.000000
0.000000 1.000000 -0.000000
0.000000 1.000000 -0.000000
0.000000 1.000000 -0.000000
0.000000 1.000000 -0.000000
0.000000 1.000000 -0.000000
0.000000 1.000000 -0.000000
0.000000 1.000000 -0.000000
0.000000 1.000000 0.000000
0.000000 1.000000 -0.000000
0.000000 1.000000 0.000000
0.000000 1.000000 -0.000000
0.000000 1.000000 -0.000000
0.000000 1.000000 -0.000000
-0.000040 1.000000 0.000611
-0.000000 1.000000 -0.000000
-0.000040 1.000000 0.000611
0.000000 1.000000 -0.000000
0.000000 1.000000 0.000000
-0.000000 1.000000 -0.000000
-0.000131 0.999998 0.001980
-0.000000 1.000000 -0.000000
-0.000131 0.999998 0.001980
-0.000000 1.000000 -0.000000
-0.000040 1.000000 0.000611
-0.000000 1.000000 -0.000000
0.000000 1.000000 0.000000
0.000000 1.000000 0.000000
0.000000 1.000000 0.000000
-0.000000 1.000000 -0.000000
-0.000131 0.999998 0.001980
0.000000 1.000000 0.000000
0.000000 1.000000 0.000000
-0.000000 1.000000 -0.000000
0.000000 1.000000 0.000000
0.000000 1.000000 0.000000
0.000000 1.000000 0.000000
-0.000000 1.000000 0.000000
-0.000000 1.000000 -0.000000
-0.000000 1.000000 -0.000000
-0.000000 1.000000 -0.000000
0.000000 1.000000 0.000000
-0.000000 1.000000 -0.000000
0.000000 1.000000 0.000000
-0.000000 1.000000 0.000000
0.000000 1.000000 0.000000
0.000000 1.000000 0.000000
-0.000000 1.000000 0.000000
-0.000000 1.000000 -0.000000
0.000000 1.000000 0.000000
0.000000 1.000000 0.000000
0.000000 1.000000 -0.000000
0.000000 1.000000 -0.000000
0.000000 1.000000 0.000000
0.000000 1.000000 -0.000000
-0.000000 1.000000 0.000001
0.000000 1.000000 0.000002
-0.000000 1.000000 0.000001
0.000000 1.000000 0.000002
-0.000000 1.000000 0.000001
-0.000000 1.000000 0.000000
-0.000000 1.000000 0.000000
-0.000000 1.000000 0.000001
-0.000000 1.000000 0.000001
-0.000000 1.000000 0.000001
-0.000000 1.000000 0.000000
-0.000000 1.000000 0.000000
0.000000 1.000000 -0.000000
-0.000000 1.000000 0.000000
-0.000000 1.000000 0.000000
-0.000000 1.000000 0.000000
0.000000 1.000000 -0.000000
0.000000 1.000000 -0.000000
0.000000 1.000000 -0.000000
0.000000 1.000000 -0.000000
0.000000 1.000000 -0.000000
0.000000 1.000000 -0.000000
0.000000 1.000000 -0.000000
0.000000 1.000000 -0.000000
0.000000 1.000000 0.000000
0.000000 1.000000 -0.000000
0.000000 1.000000 -0.000000
0.000000 1.000000 -0.000000
0.000000 1.000000 0.000000
0.000000 1.000000 -0.000000
0.000000 1.000000 -0.000000
0.000000 1.000000 0.000000
0.000000 1.000000 -0.000000
0.000000 1.000000 0.000000
0.000000 1.000000 -0.000000
0.000000 1.000000 0.000000
0.000000 1.000000 -0.000000
0.000000 1.000000 0.000000
-0.000000 1.000000 -0.000000
0.000000 1.000000 -0.000000
0.000000 1.000000 0.000000
0.000000 1.000000 0.000000
-0.000000 1.000000 -0.000000
-0.000000 1.000000 0.000000
-0.000000 1.000000 -0.000000
-0.000000 1.000000 0.000000
-0.000000 1.000000 -0.000000
0.000000 1.000000 0.000000
-0.000000 1.000000 0.000000
0.000000 1.000000 0.000000
0.000000 1.000000 0.000000
0.000000 1.000000 0.000000
-0.000000 1.000000 -0.000000
-0.000000 1.000000 0.000000
0.000000 1.000000 0.000000
-0.000000 1.000000 0.000000
0.000000 1.000000 0.000000
-0.000000 1.000000 0.000000
0.000000 1.000000 0.000000
-0.000000 1.000000 0.000000
-0.000000 1.000000 0.000000
-0.000000 1.000000 0.000000
-0.000000 1.000000 0.000000
-0.000000 1.000000 0.000000
-0.000000 1.000000 0.000000
-0.000000 1.000000 0.000000
0.000000 1.000000 -0.000000
-0.000000 1.000000 0.000000
-0.000000 1.000000 0.000000
-0.000000 1.000000 0.000000
0.000000 1.000000 -0.000000
-0.000000 1.000000 0.000000
-0.000000 1.000000 -0.000000
-0.000000 1.000000 0.000000
-0.000000 1.000000 0.000000
-0.000000 1.000000 0.000000
-0.000000 1.000000 -0.000000
0.000000 1.000000 -0.000000
-0.000000 1.000000 -0.000000
-0.000000 1.000000 0.000000
-0.000000 1.000000 -0.000000
-0.000000 1.000000 0.000000
-0.000000 1.000000 -0.000000
-0.000000 1.000000 0.000000
-0.000000 1.000000 -0.000000
-0.000000 1.000000 0.000000
0.000000 1.000000 -0.000000
0.000000 1.000000 -0.000000
-0.000000 1.000000 0.000000
0.000000 1.000000 -0.000000
0.000000 1.000000 -0.000000
0.000000 1.000000 -0.000000
0.000000 1.000000 -0.000000
0.000000 1.000000 -0.000000
0.000000 1.000000 -0.000000
0.000000 1.000000 -0.000000
0.000000 1.000000 0.000000
0.000000 1.000000 -0.000000
0.000000 1.000000 -0.000000
0.000000 1.000000 -0.000000
0.000000 1.000000 0.000000
0.000000 1.000000 0.000000
0.000000 1.000000 0.000000
0.000000 1.000000 -0.000000
-0.000000 1.000000 0.000000
-0.000000 1.000000 0.000000
0.000000 1.000000 -0.000000
0.000000 1.000000 -0.000000
-0.000000 1.000000 0.000000
0.000000 1.000000 -0.000000
0.000000 1.000000 0.000000
0.000000 1.000000 -0.000000
-0.000000 1.000000 0.000000
0.000000 1.000000 -0.000000
0.000000 1.000000 0.000000
-0.000000 1.000000 -0.000000
-0.000000 1.000000 0.000000
-0.000000 1.000000 -0.000000
0.000000 1.000000 0.000000
0.000000 1.000000 -0.000000
-0.000000 1.000000 0.000000
-0.000000 1.000000 -0.000000
-0.000000 1.000000 0.000000
-0.000000 1.000000 -0.000000
-0.000000 1.000000 0.000000
-0.000000 1.000000 -0.000000
-0.000000 1.000000 0.000000
0.000000 1.000000 -0.000000
0.000000 1.000000 -0.000000
0.000000 1.000000 -0.000000
-0.000000 1.000000 0.000000
-0.000000 1.000000 -0.000000
0.000000 1.000000 -0.000000
0.000000 1.000000 -0.000000
0.000000 1.000000 -0.000000
0.000000 1.000000 -0.000000
0.000000 1.000000 -0.000000
0.000000 1.000000 -0.000000
0.000000 1.000000 -0.000000
0.000000 1.000000 0.000000
0.000000 1.000000 -0.000000
0.000000 1.000000 0.000000
0.000000 1.000000 -0.000000
0.000000 1.000000 -0.000000
0.000000 1.000000 0.000000
0.000000 1.000000 -0.000000
0.000000 1.000000 0.000000
0.000000 1.000000 0.000000
0.000000 1.000000 -0.000000
0.000000 1.000000 0.000000
0.000000 1.000000 0.000000
-0.000000 1.000000 -0.000000
-0.000000 1.000000 -0.000000
-0.000000 1.000000 -0.000000
0.000000 1.000000 0.000000
0.000000 1.000000 0.000000
0.000000 1.000000 -0.000000
0.000000 1.000000 -0.000000
0.000000 1.000000 -0.000000
0.000000 1.000000 -0.000000
0.000000 1.000000 -0.000000
0.000000 1.000000 -0.000000
0.000000 1.000000 -0.000000
0.000000 1.000000 -0.000000
0.000000 1.000000 -0.000000
0.000000 1.000000 -0.000000
0.000000 1.000000 -0.000000
0.000000 1.000000 -0.000000
0.000000 1.000000 -0.000000
0.000000 1.000000 -0.000000
0.000000 1.000000 -0.000000
0.000000 1.000000 -0.000000
0.000000 1.000000 -0.000000
0.000000 1.000000 -0.000000
-0.000000 1.000000 -0.000000
0.000000 1.000000 -0.000000
-0.000000 1.000000 -0.000000
0.000000 1.000000 -0.000000
0.000000 1.000000 -0.000000
-0.000000 1.000000 -0.000000
0.000000 1.000000 -0.000000
-0.000000 1.000000 -0.000000
0.000000 1.000000 0.000000
-0.000000 1.000000 -0.000000
0.000000 1.000000 -0.000000
-0.000000 1.000000 -0.000000
0.000000 1.000000 0.000000
0.000000 1.000000 0.000000
0.000000 1.000000 0.000000
0.000000 1.000000 0.000000
0.000000 1.000000 0.000000
0.000000 1.000000 -0.000000
0.000000 1.000000 -0.000000
0.000000 1.000000 0.000000
0.000000 1.000000 -0.000001
0.000000 1.000000 0.000000
0.000000 1.000000 -0.000000
0.000000 1.000000 0.000000
0.000000 1.000000 -0.000001
0.000000 1.000000 -0.000001
0.000000 1.000000 -0.000000
0.000000 1.000000 -0.000001
0.000000 1.000000 -0.000001
0.000000 1.000000 -0.000000
0.000000 1.000000 -0.000000
0.000000 1.000000 0.000001
0.000000 1.000000 -0.000001
0.000000 1.000000 0.000001
0.000000 1.000000 -0.000000
0.000000 1.000000 0.000000
0.000000 1.000000 0.000000
0.000000 1.000000 -0.000001
0.000000 1.000000 0.000001
0.000000 1.000000 -0.000001
0.000000 1.000000 0.000000
0.000000 1.000000 -0.000001
0.000000 1.000000 0.000000
0.000000 1.000000 0.000000
-0.000000 1.000000 0.000000
0.000000 1.000000 0.000000
0.000000 1.000000 0.000000
0.000000 1.000000 0.000000
0.000000 1.000000 0.000000
0.000000 1.000000 0.000000
0.000000 1.000000 0.000000
0.000000 1.000000 0.000000
0.000000 1.000000 0.000000
0.000000 1.000000 0.000000
-0.000000 1.000000 0.000000
0.000000 1.000000 0.000000
0.000000 1.000000 0.000000
0.000000 1.000000 0.000000
-0.000000 1.000000 0.000000
0.000000 1.000000 0.000000
-0.000000 1.000000 -0.000000
-0.000000 1.000000 0.000000
-0.000000 1.000000 0.000000
0.000000 1.000000 0.000000
-0.000000 1.000000 0.000000
-0.000000 1.000000 0.000000
-0.000000 1.000000 -0.000000
-0.000000 1.000000 0.000000
-0.000000 1.000000 0.000000
-0.000000 1.000000 0.000000
-0.000000 1.000000 -0.000000
0.000000 1.000000 -0.000000
0.000000 1.000000 -0.000000
0.000000 1.000000 -0.000000
-0.000000 1.000000 0.000000
0.000000 1.000000 -0.000000
0.000000 1.000000 -0.000000
-0.000000 1.000000 -0.000000
0.000000 1.000000 -0.000000
0.000000 1.000000 0.000000
0.000000 1.000000 0.000000
0.000000 1.000000 -0.000000
0.000000 1.000000 0.000000
0.000000 1.000000 0.000000
0.000000 1.000000 0.000000
0.000000 1.000000 -0.000000
-0.000000 1.000000 0.000000
0.000000 1.000000 0.000000
-0.000000 1.000000 0.000000
0.000000 1.000000 0.000000
0.000000 1.000000 -0.000000
-0.000000 1.000000 -0.000000
-0.000000 1.000000 0.000000
0.000000 1.000000 -0.000000
-0.000000 1.000000 0.000000
-0.000000 1.000000 0.000000
-0.000000 1.000000 -0.000000
-0.000000 1.000000 0.000000
-0.000000 1.000000 -0.000000
-0.000000 1.000000 0.000000
-0.000000 1.000000 -0.000000
0.000000 1.000000 0.000000
0.000000 1.000000 -0.000000
0.000000 1.000000 0.000000
-0.000000 1.000000 -0.000000
0.000000 1.000000 0.000000
0.000000 1.000000 -0.000000
0.000000 1.000000 0.000000
0.000000 1.000000 -0.000000
0.000000 1.000000 0.000000
0.000000 1.000000 -0.000000
0.000000 1.000000 0.000000
0.000000 1.000000 -0.000000
-0.000000 1.000000 0.000000
0.000000 1.000000 0.000000
-0.000000 1.000000 0.000000
0.000000 1.000000 -0.000000
0.000000 1.000000 -0.000000
0.000000 1.000000 0.000000
0.000000 1.000000 0.000000
0.000000 1.000000 0.000000
0.000000 1.000000 0.000000
0.000000 1.000000 0.000000
0.000000 1.000000 0.000000
0.000000 1.000000 0.000000
0.000000 1.000000 0.000000
0.000000 1.000000 -0.000000
0.000000 1.000000 0.000000
0.000000 1.000000 0.000000
0.000000 1.000000 0.000000
0.000000 1.000000 -0.000000
-0.000000 1.000000 0.000000
-0.000000 1.000000 0.000000
0.000000 1.000000 -0.000000
0.000000 1.000000 0.000000
0.000000 1.000000 -0.000000
0.000000 1.000000 0.000000
0.000000 1.000000 0.000000
0.000000 1.000000 0.000000
0.000000 1.000000 0.000000
0.000000 1.000000 0.000000
0.000000 1.000000 0.000000
0.000000 1.000000 0.000000
-0.000000 1.000000 0.000000
0.000000 1.000000 0.000000
0.000000 1.000000 0.000000
-0.000000 1.000000 0.000000
0.000000 1.000000 0.000000
-0.000000 1.000000 0.000000
-0.000000 1.000000 0.000000
-0.000000 1.000000 0.000000
-0.000000 1.000000 0.000000
0.000000 1.000000 0.000000
-0.000000 1.000000 0.000000
-0.000000 1.000000 0.000000
-0.000000 1.000000 0.000000
-0.000000 1.000000 0.000000
-0.000000 1.000000 0.000000
-0.000000 1.000000 0.000000
-0.000000 1.000000 0.000000
-0.000000 1.000000 0.000000
-0.000000 1.000000 0.000000
-0.000000 1.000000 0.000000
-0.000000 1.000000 0.000000
-0.000000 1.000000 -0.000000
-0.000000 1.000000 0.000000
-0.000000 1.000000 0.000000
-0.000000 1.000000 0.000000
-0.000000 1.000000 -0.000000
-0.000000 1.000000 -0.000000
-0.000000 1.000000 -0.000000
-0.000000 1.000000 -0.000000
-0.000000 1.000000 -0.000000
-0.000000 1.000000 0.000000
-0.000000 1.000000 -0.000000
0.000000 1.000000 0.000000
-0.000000 1.000000 -0.000000
-0.000000 1.000000 -0.000000
0.000000 1.000000 -0.000000
0.000000 1.000000 0.000000
-0.000000 1.000000 -0.000000
-0.000000 1.000000 -0.000000
0.000000 1.000000 -0.000000
0.000000 1.000000 -0.000000
-0.000000 1.000000 -0.000000
0.000000 1.000000 0.000000
-0.000000 1.000000 -0.000000
-0.000000 1.000000 0.000000
-0.000000 1.000000 0.000000
-0.000000 1.000000 -0.000000
-0.000000 1.000000 0.000000
-0.000000 1.000000 -0.000000
-0.000000 1.000000 0.000000
0.000000 1.000000 0.000000
0.000000 1.000000 0.000000
-0.000000 1.000000 0.000000
0.000000 1.000000 0.000000
-0.000000 1.000000 0.000000
0.000000 1.000000 0.000000
0.000000 1.000000 0.000000
0.000000 1.000000 0.000000
0.000000 1.000000 0.000000
0.000000 1.000000 0.000000
0.000000 1.000000 0.000000
0.000000 1.000000 0.000000
0.000000 1.000000 0.000000
0.000000 1.000000 0.000000
0.000000 1.000000 0.000000
0.000000 1.000000 0.000000
0.000000 1.000000 0.000000
-0.000000 1.000000 -0.000000
-0.000000 1.000000 0.000000
0.000000 1.000000 0.000000
0.000000 1.000000 0.000000
-0.000000 1.000000 0.000000
0.000000 1.000000 0.000000
0.000000 1.000000 -0.000000
-0.000000 1.000000 -0.000000
-0.000000 1.000000 -0.000000
-0.000000 1.000000 0.000000
-0.000000 1.000000 -0.000000
-0.000000 1.000000 -0.000000
-0.000000 1.000000 -0.000000
0.000000 1.000000 -0.000000
0.000000 1.000000 -0.000000
0.000000 1.000000 -0.000000
0.000000 1.000000 -0.000000
-0.000000 1.000000 -0.000000
0.000000 1.000000 -0.000000
-0.000000 1.000000 -0.000000
-0.000000 1.000000 -0.000000
-0.000000 1.000000 -0.000000
-0.000000 1.000000 -0.000000
0.000000 1.000000 -0.000000
-0.000000 1.000000 -0.000000
0.000000 1.000000 -0.000000
-0.000000 1.000000 -0.000000
0.000000 1.000000 -0.000000
-0.000000 1.000000 -0.000000
-0.000000 1.000000 -0.000000
-0.000000 1.000000 -0.000000
0.000000 1.000000 -0.000000
-0.000000 1.000000 -0.000000
0.000000 1.000000 -0.000000
-0.000000 1.000000 -0.000000
0.000000 1.000000 -0.000000
0.000000 1.000000 -0.000000
-0.000000 1.000000 -0.000000
0.000000 1.000000 -0.000000
-0.000000 1.000000 -0.000000
0.000000 1.000000 -0.000000
-0.000000 1.000000 -0.000000
-0.000000 1.000000 -0.000000
0.000001 1.000000 -0.000001
-0.000000 1.000000 -0.000000
0.000001 1.000000 -0.000001
-0.000000 1.000000 -0.000000
0.000001 1.000000 -0.000001
0.000000 1.000000 -0.000000
0.000001 1.000000 -0.000000
-0.000000 1.000000 -0.000000
0.000001 1.000000 -0.000000
0.000000 1.000000 -0.000000
0.000001 1.000000 -0.000000
0.000001 1.000000 -0.000000
-0.000000 1.000000 -0.000000
0.000001 1.000000 -0.000000
-0.000000 1.000000 -0.000000
0.000001 1.000000 -0.000000
-0.000000 1.000000 -0.000000
-0.000000 1.000000 -0.000000
-0.000000 1.000000 -0.000000
-0.000000 1.000000 -0.000000
-0.000000 1.000000 -0.000000
-0.000000 1.000000 -0.000000
-0.000000 1.000000 -0.000000
-0.000000 1.000000 -0.000000
-0.000000 1.000000 -0.000000
-0.000000 1.000000 -0.000001
-0.000000 1.000000 -0.000000
-0.000000 1.000000 -0.000001
-0.000000 1.000000 -0.000001
0.000000 1.000000 0.000000
-0.000131 0.999998 0.001980
-0.000000 1.000000 0.000001
0.000000 1.000000 0.000000
-0.000000 1.000000 0.000001
-0.000000 1.000000 0.000000
0.000000 1.000000 -0.000000
-0.000000 1.000000 0.000000
-0.000000 1.000000 0.000001
-0.000000 1.000000 0.000000
0.000000 1.000000 -0.000000
0.000000 1.000000 -0.000000
0.000000 1.000000 -0.000000
0.000000 1.000000 -0.000000
0.000000 1.000000 0.000001
-0.000131 0.999998 0.001980
-0.000040 1.000000 0.000611
-0.005894 0.996839 0.079224
-0.000131 0.999998 0.001980
-0.005894 0.996839 0.079224
-0.006020 0.996920 0.078194
-0.005894 0.996839 0.079224
-0.017823 0.999675 -0.018223
-0.006020 0.996920 0.078194
-0.017823 0.999675 -0.018223
-0.005894 0.996839 0.079224
-0.017823 0.999675 -0.018223
-0.000000 1.000000 -0.000000
0.000000 1.000000 -0.000000
-0.000000 1.000000 -0.000000
-0.000000 1.000000 -0.000000
0.000000 1.000000 -0.000000
-0.000000 1.000000 -0.000000
-0.000000 1.000000 -0.000000
-0.000000 1.000000 -0.000001
-0.000000 1.000000 -0.000000
-0.000000 1.000000 -0.000001
-0.000000 1.000000 -0.000000
-0.000000 1.000000 -0.000001
-0.000000 1.000000 -0.000001
-0.000000 1.000000 -0.000001
-0.000000 1.000000 0.000001
-0.000000 1.000000 -0.000001
-0.000000 1.000000 0.000001
-0.000000 1.000000 0.000001
-0.000000 1.000000 0.000001
-0.000000 1.000000 0.000001
0.000000 1.000000 0.000001
-0.000000 1.000000 0.000001
0.000000 1.000000 0.000001
0.000000 1.000000 0.000001
0.000000 1.000000 0.000001
0.000000 1.000000 0.000001
0.000000 1.000000 -0.000003
0.000000 1.000000 0.000001
0.000000 1.000000 -0.000003
0.000000 1.000000 -0.000003
-0.000000 1.000000 -0.000000
-0.000000 1.000000 -0.000000
-0.000000 1.000000 -0.000000
-0.000000 1.000000 -0.000000
-0.000000 1.000000 -0.000000
-0.000000 1.000000 -0.000000
-0.000000 1.000000 -0.000000
-0.000000 1.000000 -0.000000
-0.000000 1.000000 -0.000000
-0.000000 1.000000 -0.000000
-0.000000 1.000000 -0.000000
-0.000000 1.000000 -0.000000
0.000000 1.000000 -0.000000
-0.000000 1.000000 -0.000000
0.000000 1.000000 -0.000000
-0.000000 1.000000 -0.000000
-0.000000 1.000000 -0.000000
0.000000 1.000000 -0.000000
0.000000 1.000000 -0.000000
0.000000 1.000000 -0.000000
0.000000 1.000000 -0.000000
0.000000 1.000000 -0.000000
0.000000 1.000000 -0.000000
0.000000 1.000000 -0.000000
0.000000 1.000000 -0.000000
0.000001 1.000000 -0.000000
0.000000 1.000000 -0.000000
0.000001 1.000000 -0.000000
0.000000 1.000000 -0.000000
0.000001 1.000000 -0.000000
-0.000000 1.000000 -0.000000
-0.000000 1.000000 -0.000000
-0.000000 1.000000 0.000000
-0.000000 1.000000 -0.000000
-0.000000 1.000000 0.000000
-0.000000 1.000000 0.000000
-0.000000 1.000000 0.000000
-0.000000 1.000000 0.000000
0.000001 1.000000 0.000000
-0.000000 1.000000 0.000000
0.000001 1.000000 0.000000
0.000001 1.000000 0.000000
-0.000000 1.000000 0.000000
-0.000000 1.000000 -0.000000
0.000000 1.000000 0.000000
-0.000000 1.000000 0.000000
0.000000 1.000000 0.000000
0.000000 1.000000 0.000000
-0.000000 1.000000 -0.000000
0.000000 1.000000 0.000000
0.000000 1.000000 0.000000
0.000000 1.000000 0.000000
-0.000000 1.000000 -0.000000
-0.000000 1.000000 -0.000000
0.000000 1.000000 0.000000
0.000000 1.000000 0.000000
0.000000 1.000000 0.000000
0.000000 1.000000 0.000000
0.000000 1.000000 0.000000
0.000000 1.000000 0.000000
0.000000 1.000000 0.000000
0.000000 1.000000 0.000000
0.000000 1.000000 0.000000
0.000000 1.000000 0.000000
0.000000 1.000000 0.000000
0.000000 1.000000 0.000000
0.000000 1.000000 0.000000
-0.000000 1.000000 -0.000000
0.000000 1.000000 0.000000
-0.000000 1.000000 -0.000000
0.000000 1.000000 0.000000
-0.000000 1.000000 -0.000000
-0.000000 1.000000 -0.000000
-0.000001 1.000000 -0.000002
-0.000000 1.000000 -0.000000
-0.000001 1.000000 -0.000002
-0.000000 1.000000 -0.000000
-0.000001 1.000000 -0.000002
0.000000 1.000000 -0.000000
-0.000000 1.000000 -0.000000
0.000000 1.000000 -0.000000
-0.000000 1.000000 -0.000000
0.000000 1.000000 -0.000000
-0.000000 1.000000 -0.000000
0.000000 1.000000 -0.000000
-0.000000 1.000000 -0.000000
0.000000 1.000000 -0.000000
-0.000000 1.000000 -0.000000
0.000000 1.000000 -0.000000
0.000000 1.000000 -0.000000
0.000000 1.000000 0.000000
0.000000 1.000000 -0.000000
0.000000 1.000000 -0.000000
0.000000 1.000000 -0.000000
0.000000 1.000000 0.000000
0.000000 1.000000 -0.000000
-0.000000 1.000000 0.000000
0.000000 1.000000 0.000000
0.000000 1.000000 0.000000
0.000000 1.000000 0.000000
-0.000000 1.000000 0.000000
0.000000 1.000000 -0.000000
-0.000000 1.000000 0.000000
0.000000 1.000000 0.000000
0.000000 1.000000 -0.000000
0.000000 1.000000 0.000000
-0.000000 1.000000 0.000000
-0.000000 1.000000 0.000000
0.000000 1.000000 0.000000
0.000000 1.000000 -0.000000
0.000000 1.000000 0.000000
0.000000 1.000000 -0.000000
0.000000 1.000000 0.000000
-0.000000 1.000000 0.000000
0.000000 1.000000 0.000000
0.000000 1.000000 0.000000
0.000000 1.000000 0.000000
0.000000 1.000000 0.000000
0.000000 1.000000 0.000000
0.000000 1.000000 0.000000
0.000000 1.000000 0.000000
0.000000 1.000000 0.000000
0.000000 1.000000 0.000000
0.000000 1.000000 0.000000
0.000000 1.000000 0.000000
0.000000 1.000000 0.000000
0.000000 1.000000 0.000000
0.000000 1.000000 -0.000000
0.000000 1.000000 -0.000000
0.000000 1.000000 -0.000000
0.000000 1.000000 0.000000
0.000000 1.000000 -0.000000
0.000000 1.000000 -0.000000
0.000000 1.000000 -0.000000
0.000000 1.000000 -0.000000
0.000000 1.000000 -0.000000
0.000000 1.000000 -0.000000
0.000000 1.000000 -0.000000
0.000000 1.000000 -0.000000
-0.000000 1.000000 0.000000
0.000000 1.000000 -0.000000
-0.000000 1.000000 0.000000
0.000000 1.000000 -0.000000
-0.000000 1.000000 0.000000
-0.000000 1.000000 0.000000
-0.000000 1.000000 0.000001
-0.000000 1.000000 0.000000
-0.000000 1.000000 0.000001
-0.000000 1.000000 0.000000
-0.000000 1.000000 0.000001
0.000000 1.000000 0.000000
-0.000000 1.000000 0.000001
0.000000 1.000000 0.000000
-0.000000 1.000000 0.000001
0.000000 1.000000 0.000000
-0.000000 1.000000 0.000001
0.000000 1.000000 -0.000000
0.000000 1.000000 0.000000
0.000000 1.000000 -0.000000
0.000000 1.000000 0.000000
0.000000 1.000000 -0.000000
0.000000 1.000000 0.000000
0.000000 1.000000 -0.000000
0.000000 1.000000 -0.000000
0.000000 1.000000 -0.000000
0.000000 1.000000 -0.000000
0.000000 1.000000 -0.000000
0.000000 1.000000 -0.000000
0.000000 1.000000 -0.000000
-0.000000 1.000000 0.000000
0.000000 1.000000 -0.000000
-0.000000 1.000000 0.000000
0.000000 1.000000 -0.000000
-0.000000 1.000000 0.000001
0.000000 1.000000 0.000002
-0.000000 1.000000 0.000001
0.000000 1.000000 0.000002
-0.000000 1.000000 0.000001
0.000000 1.000000 0.000002
-0.000000 1.000000 0.000000
0.000000 1.000000 0.000002
0.000001 1.000000 0.000001
0.000000 1.000000 0.000000
0.000001 1.000000 0.000001
0.000000 1.000000 0.000002
0.000000 1.000000 0.000002
0.000001 1.000000 0.000001
-0.000001 1.000000 -0.000001
0.000000 1.000000 0.000000
-0.000001 1.000000 -0.000001
0.000000 1.000000 0.000000
-0.000001 1.000000 -0.000001
0.000000 1.000000 -0.000001
-0.000001 1.000000 -0.000001
0.000000 1.000000 -0.000001
-0.000001 1.000000 -0.000001
-0.000001 1.000000 -0.000001
0.000000 1.000000 -0.000001
</float_array>
          <technique_common>
            <accessor source="#pPlane2-Normal0-array" count="1671" stride="3">
              <param name="X" type="float"/>
              <param name="Y" type="float"/>
              <param name="Z" type="float"/>
            </accessor>
          </technique_common>
        </source>
        <vertices id="pPlane2-VERTEX">
          <input semantic="POSITION" source="#pPlane2-POSITION"/>
        </vertices>
        <triangles count="557" material="phong1"><input semantic="VERTEX" offset="0" source="#pPlane2-VERTEX"/><input semantic="NORMAL" offset="1" source="#pPlane2-Normal0"/><p> 91 0 281 1 282 2 281 3 91 4 100 5 284 6 73 7 283 8 283 9 73 10 7 11 287 12 67 13 286 14 286 15 67 16 8 17 289 18 9 19 288 20 9 21 289 22 190 23 291 24 292 25 85 26 291 27 85 28 10 29 92 30 100 31 91 32 100 33 92 34 99 35 73 36 13 37 7 38 13 39 73 40 74 41 67 42 68 43 8 44 8 45 68 46 14 47 190 48 191 49 9 50 9 51 191 52 15 53 10 54 85 55 86 56 10 57 86 58 16 59 99 60 92 61 98 62 98 63 92 64 93 65 74 66 19 67 13 68 19 69 74 70 75 71 68 72 69 73 14 74 14 75 69 76 20 77 191 78 21 79 15 80 21 81 191 82 192 83 16 84 86 85 87 86 16 87 87 88 22 89 93 90 246 91 98 92 246 93 93 94 245 95 75 96 244 97 19 98 244 99 75 100 243 101 69 102 241 103 20 104 241 105 69 106 240 107 192 108 238 109 21 110 21 111 238 112 239 113 87 114 235 115 22 116 22 117 235 118 236 119 219 120 97 121 94 122 219 123 94 124 218 125 76 126 217 127 25 128 217 129 76 130 216 131 70 132 214 133 26 134 214 135 70 136 213 137 193 138 211 139 27 140 27 141 211 142 212 143 28 144 88 145 208 146 28 147 208 148 209 149 294 150 11 151 293 152 11 153 294 154 37 155 37 156 17 157 11 158 17 159 37 160 38 161 17 162 39 163 23 164 39 165 17 166 38 167 23 168 233 169 234 170 233 171 23 172 39 173 29 174 206 175 207 176 206 177 29 178 40 179 294 180 295 181 37 182 43 183 37 184 295 185 43 186 44 187 38 188 38 189 37 190 43 191 44 192 39 193 38 194 44 195 45 196 39 197 45 198 233 199 39 200 233 201 45 202 232 203 40 204 205 205 206 206 205 207 40 208 46 209 49 210 43 211 296 212 43 213 295 214 296 215 44 216 43 217 49 218 44 219 49 220 50 221 50 222 45 223 44 224 50 225 51 226 45 227 45 228 231 229 232 230 231 231 45 232 51 233 46 234 204 235 205 236 204 237 46 238 52 239 296 240 55 241 49 242 55 243 296 244 297 245 55 246 50 247 49 248 50 249 55 250 56 251 50 252 57 253 51 254 57 255 50 256 56 257 51 258 230 259 231 260 230 261 51 262 57 263 52 264 203 265 204 266 203 267 52 268 58 269 297 270 61 271 55 272 61 273 297 274 298 275 55 276 62 277 56 278 62 279 55 280 61 281 56 282 63 283 57 284 63 285 56 286 62 287 229 288 230 289 57 290 57 291 63 292 229 293 202 294 203 295 58 296 58 297 64 298 202 299 288 300 67 301 287 302 67 303 288 304 9 305 9 306 68 307 67 308 68 309 9 310 15 311 15 312 69 313 68 314 69 315 15 316 21 317 21 318 240 319 69 320 240 321 21 322 239 323 27 324 213 325 70 326 213 327 27 328 212 329 285 330 73 331 284 332 73 333 285 334 184 335 184 336 74 337 73 338 74 339 184 340 185 341 74 342 186 343 75 344 186 345 74 346 185 347 186 348 243 349 75 350 243 351 186 352 242 353 187 354 216 355 76 356 216 357 187 358 215 359 291 360 374 361 375 362 374 363 291 364 10 365 10 366 373 367 374 368 373 369 10 370 16 371 16 372 372 373 373 374 372 375 16 376 22 377 22 378 371 379 372 380 371 381 22 382 236 383 370 384 209 385 369 386 209 387 370 388 28 389 293 390 85 391 292 392 85 393 293 394 11 395 11 396 86 397 85 398 86 399 11 400 17 401 17 402 87 403 86 404 87 405 17 406 23 407 23 408 235 409 87 410 235 411 23 412 234 413 88 414 207 415 208 416 207 417 88 418 29 419 282 420 283 421 7 422 282 423 7 424 91 425 91 426 13 427 92 428 13 429 91 430 7 431 13 432 93 433 92 434 93 435 13 436 19 437 19 438 245 439 93 440 245 441 19 442 244 443 94 444 25 445 218 446 218 447 25 448 217 449 97 450 220 451 24 452 220 453 97 454 219 455 247 456 18 457 246 458 18 459 98 460 246 461 18 462 99 463 98 464 99 465 18 466 12 467 6 468 100 469 99 470 6 471 99 472 12 473 280 474 281 475 100 476 280 477 100 478 6 479 299 480 103 481 112 482 103 483 299 484 300 485 103 486 111 487 112 488 111 489 103 490 104 491 111 492 105 493 110 494 105 495 111 496 104 497 105 498 228 499 110 500 228 501 105 502 227 503 106 504 201 505 109 506 200 507 201 508 106 509 202 510 109 511 201 512 109 513 202 514 64 515 110 516 229 517 63 518 229 519 110 520 228 521 111 522 63 523 62 524 111 525 110 526 63 527 112 528 62 529 61 530 112 531 111 532 62 533 298 534 112 535 61 536 112 537 298 538 299 539 114 540 199 541 200 542 200 543 106 544 114 545 116 546 198 547 199 548 199 549 114 550 116 551 118 552 197 553 198 554 198 555 116 556 118 557 196 558 197 559 120 560 197 561 118 562 120 563 120 564 122 565 196 566 195 567 196 568 122 569 124 570 227 571 105 572 227 573 124 574 226 575 126 576 226 577 124 578 226 579 126 580 225 581 128 582 225 583 126 584 128 585 224 586 225 587 224 588 130 589 223 590 130 591 224 592 128 593 222 594 223 595 132 596 132 597 223 598 130 599 132 600 221 601 222 602 221 603 132 604 134 605 136 606 124 607 104 608 124 609 105 610 104 611 137 612 136 613 138 614 136 615 137 616 124 617 139 618 138 619 140 620 138 621 139 622 137 623 141 624 140 625 142 626 140 627 141 628 139 629 141 630 144 631 143 632 144 633 141 634 142 635 143 636 146 637 145 638 146 639 143 640 144 641 145 642 148 643 147 644 148 645 145 646 146 647 148 648 149 649 147 650 149 651 148 652 150 653 150 654 151 655 149 656 151 657 150 658 152 659 154 660 151 661 152 662 151 663 154 664 153 665 154 666 155 667 153 668 155 669 154 670 156 671 156 672 157 673 155 674 157 675 156 676 158 677 103 678 160 679 104 680 160 681 103 682 159 683 159 684 162 685 160 686 162 687 159 688 161 689 163 690 162 691 161 692 162 693 163 694 164 695 165 696 164 697 163 698 164 699 165 700 166 701 165 702 168 703 166 704 168 705 165 706 167 707 167 708 170 709 168 710 170 711 167 712 169 713 169 714 172 715 170 716 172 717 169 718 171 719 174 720 171 721 173 722 171 723 174 724 172 725 176 726 173 727 175 728 173 729 176 730 174 731 175 732 178 733 176 734 178 735 175 736 177 737 1 738 180 739 72 740 180 741 1 742 179 743 182 744 179 745 181 746 179 747 182 748 180 749 286 750 184 751 285 752 184 753 286 754 8 755 8 756 185 757 184 758 185 759 8 760 14 761 14 762 186 763 185 764 186 765 14 766 20 767 20 768 242 769 186 770 242 771 20 772 241 773 26 774 215 775 187 776 215 777 26 778 214 779 290 780 79 781 289 782 289 783 79 784 190 785 79 786 191 787 190 788 191 789 79 790 80 791 80 792 192 793 191 794 192 795 80 796 81 797 192 798 237 799 238 800 237 801 192 802 81 803 193 804 210 805 211 806 210 807 193 808 82 809 123 810 121 811 195 812 121 813 196 814 195 815 196 816 119 817 197 818 119 819 196 820 121 821 197 822 117 823 198 824 197 825 119 826 117 827 198 828 115 829 199 830 198 831 117 832 115 833 199 834 107 835 200 836 199 837 115 838 107 839 200 840 108 841 201 842 200 843 107 844 108 845 201 846 65 847 202 848 201 849 108 850 65 851 65 852 59 853 203 854 203 855 202 856 65 857 204 858 59 859 53 860 59 861 204 862 203 863 53 864 47 865 205 866 205 867 204 868 53 869 206 870 47 871 41 872 47 873 206 874 205 875 207 876 41 877 35 878 41 879 207 880 206 881 208 882 35 883 89 884 35 885 208 886 207 887 208 888 34 889 209 890 34 891 208 892 89 893 369 894 34 895 368 896 34 897 369 898 209 899 83 900 211 901 210 902 211 903 83 904 194 905 211 906 194 907 212 908 212 909 194 910 33 911 212 912 71 913 213 914 71 915 212 916 33 917 213 918 32 919 214 920 32 921 213 922 71 923 214 924 188 925 215 926 188 927 214 928 32 929 215 930 77 931 216 932 77 933 215 934 188 935 216 936 31 937 217 938 31 939 216 940 77 941 218 942 217 943 95 944 217 945 31 946 95 947 219 948 218 949 96 950 96 951 218 952 95 953 219 954 96 955 220 956 220 957 96 958 30 959 222 960 135 961 133 962 135 963 222 964 221 965 131 966 222 967 133 968 222 969 131 970 223 971 129 972 223 973 131 974 223 975 129 976 224 977 127 978 224 979 129 980 224 981 127 982 225 983 125 984 225 985 127 986 225 987 125 988 226 989 226 990 106 991 227 992 106 993 226 994 125 995 227 996 109 997 228 998 227 999 106 1000 109 1001 228 1002 64 1003 229 1004 64 1005 228 1006 109 1007 64 1008 58 1009 230 1010 230 1011 229 1012 64 1013 58 1014 231 1015 230 1016 231 1017 58 1018 52 1019 52 1020 46 1021 232 1022 232 1023 231 1024 52 1025 233 1026 46 1027 40 1028 46 1029 233 1030 232 1031 234 1032 40 1033 29 1034 40 1035 234 1036 233 1037 234 1038 88 1039 235 1040 88 1041 234 1042 29 1043 235 1044 88 1045 236 1046 236 1047 88 1048 28 1049 371 1050 28 1051 370 1052 28 1053 371 1054 236 1055 238 1056 82 1057 193 1058 82 1059 238 1060 237 1061 238 1062 193 1063 239 1064 239 1065 193 1066 27 1067 239 1068 70 1069 240 1070 70 1071 239 1072 27 1073 240 1074 26 1075 241 1076 26 1077 240 1078 70 1079 241 1080 187 1081 242 1082 187 1083 241 1084 26 1085 242 1086 76 1087 243 1088 76 1089 242 1090 187 1091 243 1092 25 1093 244 1094 25 1095 243 1096 76 1097 244 1098 94 1099 245 1100 94 1101 244 1102 25 1103 246 1104 245 1105 97 1106 97 1107 245 1108 94 1109 246 1110 24 1111 247 1112 24 1113 246 1114 97 1115 249 1116 248 1117 220 1118 220 1119 30 1120 249 1121 251 1122 250 1123 248 1124 248 1125 249 1126 251 1127 252 1128 250 1129 253 1130 250 1131 251 1132 253 1133 254 1134 252 1135 255 1136 252 1137 253 1138 255 1139 256 1140 255 1141 257 1142 255 1143 256 1144 254 1145 258 1146 257 1147 259 1148 257 1149 258 1150 256 1151 260 1152 259 1153 261 1154 259 1155 260 1156 258 1157 262 1158 261 1159 263 1160 261 1161 262 1162 260 1163 263 1164 264 1165 262 1166 264 1167 263 1168 265 1169 265 1170 266 1171 264 1172 266 1173 265 1174 267 1175 300 1176 269 1177 103 1178 269 1179 300 1180 301 1181 301 1182 271 1183 269 1184 271 1185 301 1186 302 1187 303 1188 271 1189 302 1190 271 1191 303 1192 273 1193 304 1194 275 1195 303 1196 273 1197 303 1198 275 1199 304 1200 277 1201 275 1202 277 1203 304 1204 305 1205 305 1206 279 1207 277 1208 279 1209 305 1210 306 1211 0 1212 101 1213 281 1214 0 1215 281 1216 280 1217 101 1218 90 1219 282 1220 101 1221 282 1222 281 1223 90 1224 1 1225 283 1226 90 1227 283 1228 282 1229 72 1230 283 1231 1 1232 283 1233 72 1234 284 1235 183 1236 284 1237 72 1238 284 1239 183 1240 285 1241 2 1242 285 1243 183 1244 285 1245 2 1246 286 1247 287 1248 286 1249 2 1250 2 1251 66 1252 287 1253 3 1254 287 1255 66 1256 287 1257 3 1258 288 1259 189 1260 288 1261 3 1262 288 1263 189 1264 289 1265 289 1266 189 1267 290 1268 189 1269 78 1270 290 1271 4 1272 375 1273 376 1274 375 1275 4 1276 291 1277 4 1278 84 1279 292 1280 4 1281 292 1282 291 1283 5 1284 292 1285 84 1286 292 1287 5 1288 293 1289 36 1290 293 1291 5 1292 293 1293 36 1294 294 1295 294 1296 42 1297 295 1298 42 1299 294 1300 36 1301 295 1302 48 1303 296 1304 48 1305 295 1306 42 1307 48 1308 297 1309 296 1310 48 1311 54 1312 297 1313 60 1314 298 1315 54 1316 54 1317 298 1318 297 1319 60 1320 113 1321 299 1322 60 1323 299 1324 298 1325 113 1326 102 1327 300 1328 113 1329 300 1330 299 1331 268 1332 301 1333 102 1334 102 1335 301 1336 300 1337 270 1338 302 1339 268 1340 268 1341 302 1342 301 1343 272 1344 303 1345 270 1346 270 1347 303 1348 302 1349 274 1350 304 1351 272 1352 303 1353 272 1354 304 1355 276 1356 305 1357 274 1358 274 1359 305 1360 304 1361 278 1362 306 1363 276 1364 276 1365 306 1366 305 1367 307 1368 279 1369 306 1370 279 1371 307 1372 308 1373 307 1374 310 1375 308 1376 310 1377 307 1378 309 1379 309 1380 312 1381 310 1382 312 1383 309 1384 311 1385 311 1386 314 1387 312 1388 314 1389 311 1390 313 1391 278 1392 316 1393 306 1394 316 1395 278 1396 315 1397 315 1398 318 1399 316 1400 318 1401 315 1402 317 1403 317 1404 320 1405 318 1406 320 1407 317 1408 319 1409 320 1410 319 1411 321 1412 320 1413 321 1414 322 1415 77 1416 188 1417 324 1418 77 1419 324 1420 323 1421 326 1422 323 1423 324 1424 323 1425 326 1426 325 1427 325 1428 326 1429 327 1430 188 1431 32 1432 329 1433 188 1434 329 1435 328 1436 329 1437 330 1438 328 1439 330 1440 329 1441 331 1442 24 1443 220 1444 332 1445 332 1446 220 1447 333 1448 333 1449 334 1450 332 1451 334 1452 333 1453 335 1454 334 1455 335 1456 337 1457 334 1458 337 1459 336 1460 336 1461 337 1462 339 1463 336 1464 339 1465 338 1466 338 1467 339 1468 341 1469 338 1470 341 1471 340 1472 343 1473 342 1474 247 1475 247 1476 24 1477 343 1478 343 1479 345 1480 342 1481 344 1482 342 1483 345 1484 346 1485 344 1486 347 1487 344 1488 345 1489 347 1490 347 1491 348 1492 346 1493 348 1494 347 1495 349 1496 349 1497 350 1498 348 1499 350 1500 349 1501 351 1502 18 1503 247 1504 353 1505 18 1506 353 1507 352 1508 352 1509 353 1510 355 1511 352 1512 355 1513 354 1514 12 1515 18 1516 357 1517 12 1518 357 1519 356 1520 359 1521 356 1522 357 1523 356 1524 359 1525 358 1526 361 1527 181 1528 360 1529 181 1530 361 1531 182 1532 360 1533 363 1534 361 1535 363 1536 360 1537 362 1538 362 1539 365 1540 363 1541 365 1542 362 1543 364 1544 364 1545 367 1546 365 1547 367 1548 364 1549 366 1550 210 1551 368 1552 83 1553 368 1554 210 1555 369 1556 82 1557 369 1558 210 1559 369 1560 82 1561 370 1562 237 1563 370 1564 82 1565 370 1566 237 1567 371 1568 372 1569 237 1570 81 1571 237 1572 372 1573 371 1574 373 1575 81 1576 80 1577 81 1578 373 1579 372 1580 374 1581 80 1582 79 1583 80 1584 374 1585 373 1586 375 1587 79 1588 290 1589 79 1590 375 1591 374 1592 376 1593 290 1594 78 1595 290 1596 376 1597 375 1598 280 1599 377 1600 0 1601 377 1602 280 1603 378 1604 378 1605 379 1606 377 1607 379 1608 378 1609 380 1610 380 1611 381 1612 379 1613 381 1614 380 1615 382 1616 382 1617 383 1618 381 1619 383 1620 382 1621 384 1622 385 1623 384 1624 386 1625 384 1626 385 1627 383 1628 387 1629 386 1630 388 1631 386 1632 387 1633 385 1634 390 1635 387 1636 388 1637 387 1638 390 1639 389 1640 390 1641 391 1642 389 1643 391 1644 390 1645 392 1646 393 1647 392 1648 394 1649 392 1650 393 1651 391 1652 393 1653 396 1654 395 1655 396 1656 393 1657 394 1658 396 1659 398 1660 395 1661 397 1662 395 1663 398 1664 399 1665 397 1666 400 1667 397 1668 398 1669 400 1670</p></triangles>
      </mesh>
    </geometry>
  </library_geometries>
  <library_visual_scenes>
    <visual_scene id="dae_avatar" name="dae_avatar">
      <node name="pPlane2" id="pPlane2" sid="pPlane2"><matrix sid="matrix">4.487267 0.000000 0.000000 0.000000 0.000000 1.000000 0.000000 0.000000 0.000000 0.000000 5.106108 0.565340 0.000000 0.000000 0.000000 1.000000</matrix><instance_geometry url="#pPlane2-lib"><bind_material><technique_common><instance_material symbol="phong1" target="#phong1"/></technique_common></bind_material></instance_geometry><extra><technique profile="FCOLLADA"><visibility>1.000000</visibility></technique></extra></node>
      <extra><technique profile="MAX3D"><frame_rate>24.000000</frame_rate></technique><technique profile="FCOLLADA"><start_time>0.041667</start_time><end_time>3.333333</end_time></technique></extra>
    </visual_scene>
  </library_visual_scenes>
  <scene>
    <instance_visual_scene url="#dae_avatar"></instance_visual_scene>
  </scene>
</COLLADA>
